<?xml version="1.0" encoding="UTF-8" standalone="no"?>
<svg
   xmlns:dc="http://purl.org/dc/elements/1.1/"
   xmlns:cc="http://creativecommons.org/ns#"
   xmlns:rdf="http://www.w3.org/1999/02/22-rdf-syntax-ns#"
   xmlns:svg="http://www.w3.org/2000/svg"
   xmlns="http://www.w3.org/2000/svg"
   xmlns:sodipodi="http://sodipodi.sourceforge.net/DTD/sodipodi-0.dtd"
   xmlns:inkscape="http://www.inkscape.org/namespaces/inkscape"
   height="30px"
   version="1.1"
   viewBox="0 0 30 30"
   width="30px"
   x="0px"
   y="0px"
   id="svg2"
   inkscape:version="0.48.4 r9939"
   sodipodi:docname="toolbar-add.svg">
  <metadata
     id="metadata16">
    <rdf:RDF>
      <cc:Work
         rdf:about="">
        <dc:format>image/svg+xml</dc:format>
        <dc:type
           rdf:resource="http://purl.org/dc/dcmitype/StillImage" />
        <dc:title></dc:title>
      </cc:Work>
    </rdf:RDF>
  </metadata>
  <defs
     id="defs14" />
  <sodipodi:namedview
     pagecolor="#ffffff"
     bordercolor="#666666"
     borderopacity="1"
     objecttolerance="10"
     gridtolerance="10"
     guidetolerance="10"
     inkscape:pageopacity="0"
     inkscape:pageshadow="2"
     inkscape:window-width="1920"
     inkscape:window-height="999"
     id="namedview12"
     showgrid="false"
     inkscape:zoom="22.250293"
     inkscape:cx="23.313096"
     inkscape:cy="14.239026"
     inkscape:window-x="-9"
     inkscape:window-y="-9"
     inkscape:window-maximized="1"
     inkscape:current-layer="svg2" />
  <path
     d="M 25,13 H 17 V 5 C 17,4.45 16.549,4 16,4 h -2 c -0.551,0 -1,0.45 -1,1 v 8 H 5 c -0.55,0 -1,0.45 -1,1 v 2 c 0,0.55 0.45,1 1,1 h 8 v 8 c 0,0.55 0.449,1 1,1 h 2 c 0.549,0 1,-0.45 1,-1 v -8 h 8 c 0.549,0 1,-0.45 1,-1 v -2 c 0,-0.55 -0.451,-1 -1,-1 z"
     id="path8"
     inkscape:connector-curvature="0"
     style="fill:#ffffff" />
  <rect
     fill="none"
     height="30"
     width="30"
     id="rect10" />
</svg>
