<?xml version="1.0" encoding="UTF-8" standalone="no"?>
<svg
   xmlns:dc="http://purl.org/dc/elements/1.1/"
   xmlns:cc="http://creativecommons.org/ns#"
   xmlns:rdf="http://www.w3.org/1999/02/22-rdf-syntax-ns#"
   xmlns:svg="http://www.w3.org/2000/svg"
   xmlns="http://www.w3.org/2000/svg"
   xmlns:sodipodi="http://sodipodi.sourceforge.net/DTD/sodipodi-0.dtd"
   xmlns:inkscape="http://www.inkscape.org/namespaces/inkscape"
   height="30px"
   version="1.1"
   viewBox="0 0 30 30"
   width="30px"
   x="0px"
   y="0px"
   id="svg2"
   inkscape:version="0.48.4 r9939"
   sodipodi:docname="audiovolumemute.svg">
  <metadata
     id="metadata17">
    <rdf:RDF>
      <cc:Work
         rdf:about="">
        <dc:format>image/svg+xml</dc:format>
        <dc:type
           rdf:resource="http://purl.org/dc/dcmitype/StillImage" />
        <dc:title></dc:title>
      </cc:Work>
    </rdf:RDF>
  </metadata>
  <defs
     id="defs15">
    <filter
       inkscape:collect="always"
       id="filter5234">
      <feGaussianBlur
         inkscape:collect="always"
         stdDeviation="0.675"
         id="feGaussianBlur5236" />
    </filter>
  </defs>
  <sodipodi:namedview
     pagecolor="#ffffff"
     bordercolor="#666666"
     borderopacity="1"
     objecttolerance="10"
     gridtolerance="10"
     guidetolerance="10"
     inkscape:pageopacity="0"
     inkscape:pageshadow="2"
     inkscape:window-width="1920"
     inkscape:window-height="999"
     id="namedview13"
     showgrid="false"
     inkscape:zoom="22.250293"
     inkscape:cx="0.55843585"
     inkscape:cy="15.600553"
     inkscape:window-x="-9"
     inkscape:window-y="-9"
     inkscape:window-maximized="1"
     inkscape:current-layer="svg2" />
  <path
     d="M15,0C6.715,0,0,6.716,0,15s6.715,15,15,15c8.283,0,15-6.716,15-15S23.283,0,15,0z M15,27  C8.373,27,3,21.627,3,15S8.373,3,15,3s12,5.373,12,12S21.627,27,15,27z"
     fill-opacity="0.15"
     stroke-opacity="0.15"
     id="path4" />
  <radialGradient
     cx="15"
     cy="-0.096199997"
     gradientUnits="userSpaceOnUse"
     id="SVGID_1_"
     r="27.940399">
    <stop
       offset="0"
       style="stop-color:#ff0006;stop-opacity:1;"
       id="stop7" />
    <stop
       offset="1"
       style="stop-color:#fbfbfb;stop-opacity:0.5403226;"
       id="stop9" />
  </radialGradient>
  <path
     d="M15,0C6.715,0,0,6.716,0,15s6.715,15,15,15c8.283,0,15-6.716,15-15S23.283,0,15,0z M15,27  C8.373,27,3,21.627,3,15S8.373,3,15,3s12,5.373,12,12S21.627,27,15,27z"
     id="path11"
     style="fill-opacity:1;fill-rule:nonzero;filter:url(#filter5234);"
     fill="url(#SVGID_1_)" />
</svg>
