<?xml version="1.0" encoding="UTF-8" standalone="no"?>
<!-- Generator: Adobe Illustrator 15.0.0, SVG Export Plug-In . SVG Version: 6.00 Build 0)  -->

<svg
   xmlns:dc="http://purl.org/dc/elements/1.1/"
   xmlns:cc="http://creativecommons.org/ns#"
   xmlns:rdf="http://www.w3.org/1999/02/22-rdf-syntax-ns#"
   xmlns:svg="http://www.w3.org/2000/svg"
   xmlns="http://www.w3.org/2000/svg"
   xmlns:sodipodi="http://sodipodi.sourceforge.net/DTD/sodipodi-0.dtd"
   xmlns:inkscape="http://www.inkscape.org/namespaces/inkscape"
   version="1.1"
   x="0px"
   y="0px"
   width="30px"
   height="30px"
   viewBox="0 0 30 30"
   enable-background="new 0 0 30 30"
   xml:space="preserve"
   id="svg2"
   inkscape:version="0.48.4 r9939"
   sodipodi:docname="camera.svg"><metadata
   id="metadata19"><rdf:RDF><cc:Work
       rdf:about=""><dc:format>image/svg+xml</dc:format><dc:type
         rdf:resource="http://purl.org/dc/dcmitype/StillImage" /><dc:title></dc:title></cc:Work></rdf:RDF></metadata><defs
   id="defs17">
	
	
	
	
</defs><sodipodi:namedview
   pagecolor="#ffffff"
   bordercolor="#666666"
   borderopacity="1"
   objecttolerance="10"
   gridtolerance="10"
   guidetolerance="10"
   inkscape:pageopacity="0"
   inkscape:pageshadow="2"
   inkscape:window-width="1920"
   inkscape:window-height="999"
   id="namedview15"
   showgrid="false"
   inkscape:zoom="15.733333"
   inkscape:cx="33.563862"
   inkscape:cy="11.373698"
   inkscape:window-x="-9"
   inkscape:window-y="-9"
   inkscape:window-maximized="1"
   inkscape:current-layer="svg2" />
<g
   id="DO_NOT_EDIT_-_BOUNDING_BOX">
	<rect
   id="BOUNDING_BOX"
   fill="none"
   width="30"
   height="30" />
</g>
<path
   style="fill:#ffffff"
   inkscape:connector-curvature="0"
   id="path13"
   d="m 15,10.5 c -3.033,0 -5.5,2.469 -5.5,5.5 0,3.031 2.467,5.5 5.5,5.5 3.031,0 5.5,-2.469 5.5,-5.5 0,-3.031 -2.469,-5.5 -5.5,-5.5 z m 0,9 c -1.93,0 -3.5,-1.57 -3.5,-3.5 0,-1.93 1.57,-3.5 3.5,-3.5 1.93,0 3.5,1.57 3.5,3.5 0,1.93 -1.57,3.5 -3.5,3.5 z M 27,7 H 9 C 9,6.45 8.549,6 8,6 H 5 C 4.449,6 4,6.45 4,7 H 3 C 2.449,7 2,7.45 2,8 v 16 c 0,0.55 0.449,1 1,1 h 24 c 0.549,0 1,-0.45 1,-1 V 8 C 28,7.45 27.549,7 27,7 z M 6.5,11 c -0.553,0 -1,-0.447 -1,-1 0,-0.553 0.447,-1 1,-1 0.553,0 1,0.447 1,1 0,0.553 -0.447,1 -1,1 z M 15,22.75 c -3.729,0 -6.75,-3.021 -6.75,-6.75 0,-3.729 3.021,-6.75 6.75,-6.75 3.729,0 6.75,3.021 6.75,6.75 0,3.729 -3.021,6.75 -6.75,6.75 z M 26,10 H 22 V 8.5 h 4 V 10 z" />
</svg>