<?xml version="1.0" encoding="UTF-8" standalone="no"?>
<!-- Generator: Adobe Illustrator 15.0.0, SVG Export Plug-In . SVG Version: 6.00 Build 0)  -->

<svg
   xmlns:dc="http://purl.org/dc/elements/1.1/"
   xmlns:cc="http://creativecommons.org/ns#"
   xmlns:rdf="http://www.w3.org/1999/02/22-rdf-syntax-ns#"
   xmlns:svg="http://www.w3.org/2000/svg"
   xmlns="http://www.w3.org/2000/svg"
   xmlns:sodipodi="http://sodipodi.sourceforge.net/DTD/sodipodi-0.dtd"
   xmlns:inkscape="http://www.inkscape.org/namespaces/inkscape"
   version="1.1"
   x="0px"
   y="0px"
   width="30px"
   height="30px"
   viewBox="0 0 30 30"
   enable-background="new 0 0 30 30"
   xml:space="preserve"
   id="svg2"
   inkscape:version="0.48.4 r9939"
   sodipodi:docname="close_stop.svg"><metadata
   id="metadata23"><rdf:RDF><cc:Work
       rdf:about=""><dc:format>image/svg+xml</dc:format><dc:type
         rdf:resource="http://purl.org/dc/dcmitype/StillImage" /><dc:title></dc:title></cc:Work></rdf:RDF></metadata><defs
   id="defs21">
	

		
		
		
		
		
	</defs><sodipodi:namedview
   pagecolor="#ffffff"
   bordercolor="#666666"
   borderopacity="1"
   objecttolerance="10"
   gridtolerance="10"
   guidetolerance="10"
   inkscape:pageopacity="0"
   inkscape:pageshadow="2"
   inkscape:window-width="1920"
   inkscape:window-height="999"
   id="namedview19"
   showgrid="false"
   inkscape:zoom="22.250293"
   inkscape:cx="25.246618"
   inkscape:cy="14.656612"
   inkscape:window-x="-9"
   inkscape:window-y="-9"
   inkscape:window-maximized="1"
   inkscape:current-layer="svg2" />
<g
   id="DO_NOT_EDIT_-_BOUNDING_BOX">
	<rect
   id="BOUNDING_BOX"
   fill="none"
   width="30"
   height="30" />
</g>
<path
   d="m 18.654,15 8.043,-8.042 c 0.404,-0.403 0.404,-1.06 0,-1.462 L 24.504,3.303 C 24.1,2.899 23.445,2.899 23.043,3.303 L 15,11.344 6.959,3.303 C 6.555,2.899 5.9,2.899 5.496,3.303 L 3.303,5.496 c -0.404,0.402 -0.404,1.059 0,1.462 L 11.346,15 3.303,23.041 c -0.404,0.404 -0.404,1.059 0,1.463 l 2.193,2.193 c 0.404,0.404 1.059,0.404 1.463,0 L 15,18.654 l 8.043,8.043 c 0.402,0.404 1.057,0.404 1.461,0 l 2.193,-2.193 c 0.404,-0.404 0.404,-1.059 0,-1.463 L 18.654,15 z"
   id="path15"
   inkscape:connector-curvature="0"
   style="fill:#ffffff" /><rect
   width="30"
   height="30"
   id="rect17"
   x="0"
   y="0"
   style="fill:none" />
</svg>