<?xml version="1.0" encoding="UTF-8" standalone="no"?>
<!-- Svg Vector Icons : http://www.onlinewebfonts.com/icon -->

<svg
   xmlns:dc="http://purl.org/dc/elements/1.1/"
   xmlns:cc="http://creativecommons.org/ns#"
   xmlns:rdf="http://www.w3.org/1999/02/22-rdf-syntax-ns#"
   xmlns:svg="http://www.w3.org/2000/svg"
   xmlns="http://www.w3.org/2000/svg"
   xmlns:sodipodi="http://sodipodi.sourceforge.net/DTD/sodipodi-0.dtd"
   xmlns:inkscape="http://www.inkscape.org/namespaces/inkscape"
   version="1.1"
   x="0px"
   y="0px"
   viewBox="0 0 40 35"
   enable-background="new 0 0 1000 1000"
   xml:space="preserve"
   id="svg20"
   sodipodi:docname="console.svg"
   width="40"
   height="35"
   inkscape:version="0.92.2 (5c3e80d, 2017-08-06)"><defs
     id="defs24" /><sodipodi:namedview
     pagecolor="#ffffff"
     bordercolor="#666666"
     borderopacity="1"
     objecttolerance="10"
     gridtolerance="10"
     guidetolerance="10"
     inkscape:pageopacity="0"
     inkscape:pageshadow="2"
     inkscape:window-width="1920"
     inkscape:window-height="1001"
     id="namedview22"
     showgrid="false"
     inkscape:zoom="5.3400704"
     inkscape:cx="10.384461"
     inkscape:cy="43.574096"
     inkscape:window-x="-9"
     inkscape:window-y="-9"
     inkscape:window-maximized="1"
     inkscape:current-layer="svg20" /><metadata
     id="metadata2"> Svg Vector Icons : http://www.onlinewebfonts.com/icon <rdf:RDF><cc:Work
     rdf:about=""><dc:format>image/svg+xml</dc:format><dc:type
       rdf:resource="http://purl.org/dc/dcmitype/StillImage" /><dc:title></dc:title></cc:Work></rdf:RDF></metadata><g
     id="g18"
     transform="matrix(0.04081572,0,0,0.04355672,-0.40785441,-4.2781422)"
     style="fill:#ffffff"><g
       transform="matrix(0.1,0,0,-0.1,0,511)"
       id="g16"
       style="fill:#ffffff"><path
         d="M 355,4078 C 245.9,4024.4 169.4,3938.3 129.2,3827.4 92.8,3726 89,-1805.1 125.4,-1925.7 c 30.6,-105.2 189.4,-264 294.6,-294.6 59.3,-17.2 535.7,-23 1947.7,-23 H 4235 v -526.1 -526.1 h -698.3 -698.3 v -306.1 -306.1 h 2161.9 2161.9 v 306.1 306.1 H 6464 5765.7 v 526.1 526.1 h 1871.1 c 2123.7,0 1987.9,-9.6 2133.3,153.1 45.9,49.7 93.8,126.3 105.2,168.4 36.4,116.7 30.6,5649.8 -3.8,5749.3 -40.2,109.1 -118.6,200.9 -221.9,252.5 l -93.8,47.8 H 5004.2 454.5 Z M 9286,942.3 V -1631 H 5000.3 714.7 V 942.3 3515.6 H 5000.3 9286 Z"
         id="path4"
         inkscape:connector-curvature="0"
         style="fill:#ffffff" /><path
         d="M 3355,2597.2 V 2291.1 H 4579.5 5804 v 306.1 306.1 H 4579.4 3355 Z"
         id="path6"
         inkscape:connector-curvature="0"
         style="fill:#ffffff" /><path
         d="m 4196.8,1774.5 v -306.1 h 1224.5 1224.5 v 306.1 306.1 H 5421.2 4196.8 Z"
         id="path8"
         inkscape:connector-curvature="0"
         style="fill:#ffffff" /><path
         d="M 3355,951.8 V 645.7 H 4579.5 5804 v 306.1 306.1 H 4579.4 3355 Z"
         id="path10"
         inkscape:connector-curvature="0"
         style="fill:#ffffff" /><path
         d="M 4196.8,129.1 V -177 H 5421.3 6645.8 V 129.1 435.2 H 5421.2 4196.8 Z"
         id="path12"
         inkscape:connector-curvature="0"
         style="fill:#ffffff" /><path
         d="M 3355,-693.6 V -999.7 H 4579.5 5804 v 306.1 306.1 H 4579.4 3355 Z"
         id="path14"
         inkscape:connector-curvature="0"
         style="fill:#ffffff" /></g></g></svg>