<?xml version="1.0" encoding="UTF-8" standalone="no"?>
<!-- Generator: Adobe Illustrator 15.0.0, SVG Export Plug-In . SVG Version: 6.00 Build 0)  -->

<svg
   xmlns:dc="http://purl.org/dc/elements/1.1/"
   xmlns:cc="http://creativecommons.org/ns#"
   xmlns:rdf="http://www.w3.org/1999/02/22-rdf-syntax-ns#"
   xmlns:svg="http://www.w3.org/2000/svg"
   xmlns="http://www.w3.org/2000/svg"
   xmlns:sodipodi="http://sodipodi.sourceforge.net/DTD/sodipodi-0.dtd"
   xmlns:inkscape="http://www.inkscape.org/namespaces/inkscape"
   version="1.1"
   x="0px"
   y="0px"
   width="30px"
   height="30px"
   viewBox="0 0 30 30"
   enable-background="new 0 0 30 30"
   xml:space="preserve"
   id="svg2"
   inkscape:version="0.48.4 r9939"
   sodipodi:docname="delete.svg"><metadata
   id="metadata23"><rdf:RDF><cc:Work
       rdf:about=""><dc:format>image/svg+xml</dc:format><dc:type
         rdf:resource="http://purl.org/dc/dcmitype/StillImage" /></cc:Work></rdf:RDF></metadata><defs
   id="defs21">
	

		
		
		
		
		
	</defs><sodipodi:namedview
   pagecolor="#ffffff"
   bordercolor="#666666"
   borderopacity="1"
   objecttolerance="10"
   gridtolerance="10"
   guidetolerance="10"
   inkscape:pageopacity="0"
   inkscape:pageshadow="2"
   inkscape:window-width="1920"
   inkscape:window-height="999"
   id="namedview19"
   showgrid="false"
   inkscape:zoom="22.250293"
   inkscape:cx="26.712986"
   inkscape:cy="14.396519"
   inkscape:window-x="-9"
   inkscape:window-y="-9"
   inkscape:window-maximized="1"
   inkscape:current-layer="svg2" />
<g
   id="DO_NOT_EDIT_-_BOUNDING_BOX">
	<rect
   id="BOUNDING_BOX"
   fill="none"
   width="30"
   height="30" />
</g>
<path
   d="M 7,27 H 23 L 24,8 H 6 L 7,27 z M 18,12 c 0,-0.553 0.447,-1 1,-1 0.553,0 1,0.447 1,1 v 10 c 0,0.553 -0.447,1 -1,1 -0.553,0 -1,-0.447 -1,-1 V 12 z m -4,0 c 0,-0.553 0.447,-1 1,-1 0.553,0 1,0.447 1,1 v 10 c 0,0.553 -0.447,1 -1,1 -0.553,0 -1,-0.447 -1,-1 V 12 z m -4,0 c 0,-0.553 0.447,-1 1,-1 0.553,0 1,0.447 1,1 v 10 c 0,0.553 -0.447,1 -1,1 -0.553,0 -1,-0.447 -1,-1 V 12 z M 24,4 H 18.5 V 3 C 18.5,2.174 17.828,1.5 17,1.5 H 13 C 12.174,1.5 11.5,2.174 11.5,3 V 4 H 6 C 5.447,4 5,4.448 5,5 V 6 H 25 V 5 C 25,4.448 24.551,4 24,4 z M 17,4 H 13 V 3 h 4 v 1 z"
   id="path15"
   inkscape:connector-curvature="0"
   style="fill:#ffffff" /><rect
   width="30"
   height="30"
   id="rect17"
   x="0"
   y="0"
   style="fill:none" />
</svg>