<?xml version="1.0" encoding="UTF-8" standalone="no"?>
<!-- Generator: Adobe Illustrator 15.0.0, SVG Export Plug-In . SVG Version: 6.00 Build 0)  -->

<svg
   xmlns:dc="http://purl.org/dc/elements/1.1/"
   xmlns:cc="http://creativecommons.org/ns#"
   xmlns:rdf="http://www.w3.org/1999/02/22-rdf-syntax-ns#"
   xmlns:svg="http://www.w3.org/2000/svg"
   xmlns="http://www.w3.org/2000/svg"
   xmlns:sodipodi="http://sodipodi.sourceforge.net/DTD/sodipodi-0.dtd"
   xmlns:inkscape="http://www.inkscape.org/namespaces/inkscape"
   version="1.1"
   x="0px"
   y="0px"
   width="30px"
   height="30px"
   viewBox="0 0 30 30"
   enable-background="new 0 0 30 30"
   xml:space="preserve"
   id="svg2"
   inkscape:version="0.48.4 r9939"
   sodipodi:docname="download.svg"><metadata
   id="metadata23"><rdf:RDF><cc:Work
       rdf:about=""><dc:format>image/svg+xml</dc:format><dc:type
         rdf:resource="http://purl.org/dc/dcmitype/StillImage" /></cc:Work></rdf:RDF></metadata><defs
   id="defs21">
	

		
		
		
		
		
	</defs><sodipodi:namedview
   pagecolor="#ffffff"
   bordercolor="#666666"
   borderopacity="1"
   objecttolerance="10"
   gridtolerance="10"
   guidetolerance="10"
   inkscape:pageopacity="0"
   inkscape:pageshadow="2"
   inkscape:window-width="1920"
   inkscape:window-height="999"
   id="namedview19"
   showgrid="false"
   inkscape:zoom="22.250293"
   inkscape:cx="17.552691"
   inkscape:cy="12.26572"
   inkscape:window-x="-9"
   inkscape:window-y="-9"
   inkscape:window-maximized="1"
   inkscape:current-layer="svg2" />
<g
   id="DO_NOT_EDIT_-_BOUNDING_BOX">
	<rect
   id="BOUNDING_BOX"
   fill="none"
   width="30"
   height="30" />
</g>
<rect
   width="30"
   height="30"
   id="rect11"
   x="0"
   y="0"
   style="fill:none" /><path
   d="M 25.957,1 H 4.044 C 3.471,1 3,1.47 3,2.044 V 4.13 C 3,4.704 3.471,5.174 4.044,5.174 H 25.957 C 26.531,5.174 27,4.704 27,4.13 V 2.044 C 27,1.47 26.531,1 25.957,1 z M 21.429,15 H 19 c -0.55,0 -1,-0.45 -1,-1 V 8 C 18,7.45 17.55,7 17,7 h -4 c -0.55,0 -1,0.45 -1,1 v 6 c 0,0.55 -0.45,1 -1,1 H 8.571 c -0.55,0 -0.777,0.391 -0.504,0.868 l 2.724,4.764 c 0.273,0.478 0.719,1.259 0.992,1.736 l 2.721,4.764 c 0.273,0.478 0.719,0.478 0.992,0 l 2.722,-4.764 c 0.272,-0.478 0.72,-1.259 0.992,-1.736 l 2.723,-4.764 C 22.205,15.391 21.979,15 21.429,15 z"
   id="path17"
   inkscape:connector-curvature="0"
   style="fill:#ffffff" />
</svg>