<?xml version="1.0" encoding="UTF-8" standalone="no"?>
<!-- Generator: Adobe Illustrator 15.0.0, SVG Export Plug-In . SVG Version: 6.00 Build 0)  -->

<svg
   xmlns:dc="http://purl.org/dc/elements/1.1/"
   xmlns:cc="http://creativecommons.org/ns#"
   xmlns:rdf="http://www.w3.org/1999/02/22-rdf-syntax-ns#"
   xmlns:svg="http://www.w3.org/2000/svg"
   xmlns="http://www.w3.org/2000/svg"
   xmlns:sodipodi="http://sodipodi.sourceforge.net/DTD/sodipodi-0.dtd"
   xmlns:inkscape="http://www.inkscape.org/namespaces/inkscape"
   version="1.1"
   x="0px"
   y="0px"
   width="30px"
   height="30px"
   viewBox="0 0 30 30"
   enable-background="new 0 0 30 30"
   xml:space="preserve"
   id="svg2"
   inkscape:version="0.48.4 r9939"
   sodipodi:docname="error.svg"><metadata
   id="metadata27"><rdf:RDF><cc:Work
       rdf:about=""><dc:format>image/svg+xml</dc:format><dc:type
         rdf:resource="http://purl.org/dc/dcmitype/StillImage" /><dc:title></dc:title></cc:Work></rdf:RDF></metadata><defs
   id="defs25">
	
	
	
	
	
	
	
	
</defs><sodipodi:namedview
   pagecolor="#ffffff"
   bordercolor="#666666"
   borderopacity="1"
   objecttolerance="10"
   gridtolerance="10"
   guidetolerance="10"
   inkscape:pageopacity="0"
   inkscape:pageshadow="2"
   inkscape:window-width="1920"
   inkscape:window-height="999"
   id="namedview23"
   showgrid="false"
   inkscape:zoom="15.733333"
   inkscape:cx="16.977768"
   inkscape:cy="19.192856"
   inkscape:window-x="-9"
   inkscape:window-y="-9"
   inkscape:window-maximized="1"
   inkscape:current-layer="svg2" />
<g
   id="DO_NOT_EDIT_-_BOUNDING_BOX">
	<rect
   id="BOUNDING_BOX"
   fill="none"
   width="30"
   height="30" />
</g>
<rect
   style="fill:none"
   y="0"
   x="0"
   id="rect9"
   height="30"
   width="30" /><rect
   style="fill:none"
   y="0"
   x="0"
   id="rect11"
   height="30"
   width="30" /><rect
   style="fill:none"
   y="0"
   x="0"
   id="rect13"
   height="30"
   width="30" /><rect
   style="fill:none"
   y="0"
   x="0"
   id="rect15"
   height="30"
   width="30" /><path
   style="fill:#ff0000"
   inkscape:connector-curvature="0"
   id="path21"
   d="m 28.021,7.7621026 c -1.051,-2.914 -2.857,-5.035 -6.768,-6.043 -2.918,-0.75599996 -4.928,-0.73799996 -6.289,-0.709 -1.363,-0.029 -3.373,-0.047 -6.293,0.709 -3.907,1.008 -5.716,3.129 -6.763,6.043 0,0 -2.043,6.3420004 0,14.4789994 0.752,3.004 2.855,5.035 6.764,6.043 2.92,0.752 4.93,0.736 6.293,0.705 1.361,0.031 3.371,0.047 6.289,-0.705 3.91,-1.008 5.869,-3.082 6.768,-6.043 C 30.223,14.979103 28.021,7.7621026 28.021,7.7621026 z m -14.158,-3.262 h 2.273 c 0.918,0 1.666,0.748 1.666,1.668 l -0.58,9.1190004 c 0,0.902 -0.748,1.65 -1.666,1.65 h -1.113 c -0.92,0 -1.666,-0.748 -1.668,-1.67 l -0.58,-9.0840004 c 0,-0.935 0.748,-1.683 1.668,-1.683 z m 1.139,20.9999994 c -1.723,0 -3.125,-1.402 -3.125,-3.125 0,-1.721 1.402,-3.121 3.125,-3.121 1.719,0 3.119,1.4 3.119,3.121 0,1.723 -1.4,3.125 -3.119,3.125 z" />
</svg>