<?xml version="1.0" encoding="UTF-8" standalone="no"?>
<svg
   xmlns:dc="http://purl.org/dc/elements/1.1/"
   xmlns:cc="http://creativecommons.org/ns#"
   xmlns:rdf="http://www.w3.org/1999/02/22-rdf-syntax-ns#"
   xmlns:svg="http://www.w3.org/2000/svg"
   xmlns="http://www.w3.org/2000/svg"
   xmlns:xlink="http://www.w3.org/1999/xlink"
   xmlns:sodipodi="http://sodipodi.sourceforge.net/DTD/sodipodi-0.dtd"
   xmlns:inkscape="http://www.inkscape.org/namespaces/inkscape"
   height="96px"
   version="1.1"
   viewBox="0 0 96 96"
   width="96px"
   x="0px"
   y="0px"
   id="svg2"
   inkscape:version="0.48.4 r9939"
   sodipodi:docname="facebook.svg">
  <metadata
     id="metadata35">
    <rdf:RDF>
      <cc:Work
         rdf:about="">
        <dc:format>image/svg+xml</dc:format>
        <dc:type
           rdf:resource="http://purl.org/dc/dcmitype/StillImage" />
      </cc:Work>
    </rdf:RDF>
  </metadata>
  <defs
     id="defs33">
    <linearGradient
       inkscape:collect="always"
       xlink:href="#SVGID_1_"
       id="linearGradient3024"
       gradientUnits="userSpaceOnUse"
       x1="47.9995"
       y1="9.2470999"
       x2="47.9995"
       y2="86.511101" />
  </defs>
  <sodipodi:namedview
     pagecolor="#ffffff"
     bordercolor="#666666"
     borderopacity="1"
     objecttolerance="10"
     gridtolerance="10"
     guidetolerance="10"
     inkscape:pageopacity="0"
     inkscape:pageshadow="2"
     inkscape:window-width="1920"
     inkscape:window-height="999"
     id="namedview31"
     showgrid="false"
     inkscape:zoom="6.9532167"
     inkscape:cx="47.103034"
     inkscape:cy="40.761538"
     inkscape:window-x="-9"
     inkscape:window-y="-9"
     inkscape:window-maximized="1"
     inkscape:current-layer="g8" />
  <rect
     style="fill:#f1f1f2;fill-opacity:0"
     id="rect6"
     y="8"
     x="8"
     width="80"
     height="80" />
  <g
     id="g8">
    <path
       style="fill:#3b599f;fill-opacity:0.94117647"
       inkscape:connector-curvature="0"
       id="path10"
       d="M 87,48 C 87,76.893 76.895,87 48,87 19.105,87 9,76.893 9,48 9,19.107 19.105,9 48,9 76.895,9 87,19.107 87,48 z" />
    <path
       d="M 43.43,66.572 V 48.924 H 38.766 V 42.57 h 4.664 c 0,0 0,-2.602 0,-5.422 0,-4.266 2.752,-8.182 9.105,-8.182 2.574,0 4.475,0.244 4.475,0.244 l -0.15,5.934 c 0,0 -1.938,-0.02 -4.055,-0.02 -2.291,0 -2.658,1.055 -2.658,2.807 0,1.389 0,-2.951 0,4.639 h 6.895 l -0.299,6.354 H 50.147 V 66.572 H 43.43 z"
       id="path20"
       inkscape:connector-curvature="0"
       style="fill:#ffffff" />
    <defs
       id="defs22">
      <linearGradient
         y2="86.511101"
         y1="9.2470999"
         x2="47.9995"
         x1="47.9995"
         id="SVGID_1_"
         gradientUnits="userSpaceOnUse">
        <stop
           id="stop25"
           style="stop-color:#FFFFFF"
           offset="0" />
        <stop
           id="stop27"
           style="stop-color:#FFFFFF;stop-opacity:0"
           offset="1" />
      </linearGradient>
    </defs>
  </g>
  <rect
     fill="none"
     height="96"
     width="96"
     id="rect29" />
</svg>
