<?xml version="1.0" encoding="UTF-8" standalone="no"?>
<!-- Generator: Adobe Illustrator 15.0.0, SVG Export Plug-In . SVG Version: 6.00 Build 0)  -->

<svg
   xmlns:dc="http://purl.org/dc/elements/1.1/"
   xmlns:cc="http://creativecommons.org/ns#"
   xmlns:rdf="http://www.w3.org/1999/02/22-rdf-syntax-ns#"
   xmlns:svg="http://www.w3.org/2000/svg"
   xmlns="http://www.w3.org/2000/svg"
   xmlns:sodipodi="http://sodipodi.sourceforge.net/DTD/sodipodi-0.dtd"
   xmlns:inkscape="http://www.inkscape.org/namespaces/inkscape"
   version="1.1"
   x="0px"
   y="0px"
   width="30px"
   height="30px"
   viewBox="0 0 30 30"
   enable-background="new 0 0 30 30"
   xml:space="preserve"
   id="svg2"
   inkscape:version="0.48.4 r9939"
   sodipodi:docname="favourite.svg"><metadata
   id="metadata19"><rdf:RDF><cc:Work
       rdf:about=""><dc:format>image/svg+xml</dc:format><dc:type
         rdf:resource="http://purl.org/dc/dcmitype/StillImage" /><dc:title></dc:title></cc:Work></rdf:RDF></metadata><defs
   id="defs17">
	
	
	
	
</defs><sodipodi:namedview
   pagecolor="#ffffff"
   bordercolor="#666666"
   borderopacity="1"
   objecttolerance="10"
   gridtolerance="10"
   guidetolerance="10"
   inkscape:pageopacity="0"
   inkscape:pageshadow="2"
   inkscape:window-width="1920"
   inkscape:window-height="999"
   id="namedview15"
   showgrid="false"
   inkscape:zoom="15.733333"
   inkscape:cx="24.981216"
   inkscape:cy="13.08857"
   inkscape:window-x="-9"
   inkscape:window-y="-9"
   inkscape:window-maximized="1"
   inkscape:current-layer="svg2" />
<g
   id="DO_NOT_EDIT_-_BOUNDING_BOX">
	<rect
   id="BOUNDING_BOX"
   fill="none"
   width="30"
   height="30" />
</g>
<path
   style="fill:#ffffff"
   inkscape:connector-curvature="0"
   id="path13"
   d="m 29,12.124 c 0,-0.526 -0.428,-0.945 -0.957,-0.959 h -0.01 c -0.004,0 -0.008,-0.003 -0.012,-0.003 -0.006,0 -0.01,0.003 -0.014,0.003 L 18.78,11.168 15.925,2.535 c -0.13,-0.38 -0.486,-0.66 -0.917,-0.66 -0.425,0 -0.777,0.271 -0.912,0.645 H 14.08 L 11.221,11.168 2.064,11.165 2.06,11.176 c -0.03,0 -0.054,-0.014 -0.084,-0.014 -0.538,0 -0.976,0.43 -0.976,0.962 0,0.381 0.231,0.706 0.563,0.861 l -0.007,0.017 7.331,5.218 -2.826,8.522 c -0.064,0.132 -0.109,0.269 -0.109,0.426 0,0.528 0.438,0.957 0.978,0.957 0.212,0 0.398,-0.08 0.559,-0.195 l 0.009,0.006 7.502,-5.353 7.369,5.259 c 0.008,0.008 0.02,0.012 0.027,0.019 l 0.064,0.044 h 0.002 c 0.168,0.13 0.369,0.221 0.6,0.221 0.541,0 0.98,-0.429 0.98,-0.957 0,-0.086 -0.029,-0.16 -0.049,-0.239 L 24,26.926 23.979,26.861 c -0.01,-0.03 -0.016,-0.063 -0.029,-0.093 L 21.116,18.22 28.579,12.908 28.575,12.894 C 28.826,12.721 29,12.447 29,12.124 z" />
</svg>