<?xml version="1.0" encoding="UTF-8" standalone="no"?>
<!-- Generator: Adobe Illustrator 15.0.0, SVG Export Plug-In . SVG Version: 6.00 Build 0)  -->

<svg
   xmlns:dc="http://purl.org/dc/elements/1.1/"
   xmlns:cc="http://creativecommons.org/ns#"
   xmlns:rdf="http://www.w3.org/1999/02/22-rdf-syntax-ns#"
   xmlns:svg="http://www.w3.org/2000/svg"
   xmlns="http://www.w3.org/2000/svg"
   xmlns:sodipodi="http://sodipodi.sourceforge.net/DTD/sodipodi-0.dtd"
   xmlns:inkscape="http://www.inkscape.org/namespaces/inkscape"
   version="1.1"
   x="0px"
   y="0px"
   width="30px"
   height="30px"
   viewBox="0 0 30 30"
   enable-background="new 0 0 30 30"
   xml:space="preserve"
   id="svg2"
   inkscape:version="0.48.4 r9939"
   sodipodi:docname="history.svg"><metadata
   id="metadata23"><rdf:RDF><cc:Work
       rdf:about=""><dc:format>image/svg+xml</dc:format><dc:type
         rdf:resource="http://purl.org/dc/dcmitype/StillImage" /><dc:title></dc:title></cc:Work></rdf:RDF></metadata><defs
   id="defs21">
	

		
		
		
		
		
	</defs><sodipodi:namedview
   pagecolor="#ffffff"
   bordercolor="#666666"
   borderopacity="1"
   objecttolerance="10"
   gridtolerance="10"
   guidetolerance="10"
   inkscape:pageopacity="0"
   inkscape:pageshadow="2"
   inkscape:window-width="1920"
   inkscape:window-height="999"
   id="namedview19"
   showgrid="false"
   inkscape:zoom="15.733333"
   inkscape:cx="20.137024"
   inkscape:cy="10.15904"
   inkscape:window-x="-9"
   inkscape:window-y="-9"
   inkscape:window-maximized="1"
   inkscape:current-layer="svg2" />
<g
   id="DO_NOT_EDIT_-_BOUNDING_BOX">
	<rect
   id="BOUNDING_BOX"
   fill="none"
   width="30"
   height="30" />
</g>
<rect
   width="30"
   height="30"
   id="rect11"
   x="0"
   y="0"
   style="fill:none" /><path
   d="M 15,2 C 7.82,2 2,7.82 2,15 2,22.18 7.82,28 15,28 22.18,28 28,22.18 28,15 28,7.82 22.18,2 15,2 z m 0.705,22.299 c -1.77,0 -3.416,-0.488 -4.832,-1.332 1.104,0.471 2.307,0.733 3.576,0.733 5.521,0 8.701,-3.942 8.701,-8.675 0,-3.18 -2.734,-6.488 -6.225,-6.488 -3.406,0 -5.816,2.338 -5.951,5.713 H 10.97 v 0.764 h 2.703 L 8.641,21.85 3.518,15.016 H 6.235 C 6.233,14.951 6.227,14.885 6.227,14.817 c 0,-5.235 4.24,-9.48 9.479,-9.48 5.236,0 9.48,4.245 9.48,9.48 0,5.236 -4.245,9.482 -9.481,9.482 z"
   id="path17"
   inkscape:connector-curvature="0"
   style="fill:#ffffff" />
</svg>