<?xml version="1.0" encoding="utf-8"?>
<!-- Generator: Adobe Illustrator 15.0.0, SVG Export Plug-In . SVG Version: 6.00 Build 0)  -->
<!DOCTYPE svg PUBLIC "-//W3C//DTD SVG 1.1//EN" "http://www.w3.org/Graphics/SVG/1.1/DTD/svg11.dtd">
<svg version="1.1" id="Layer_1" xmlns="http://www.w3.org/2000/svg" xmlns:xlink="http://www.w3.org/1999/xlink" x="0px" y="0px"
	 width="96px" height="96px" viewBox="0 0 96 96" enable-background="new 0 0 96 96" xml:space="preserve">
<radialGradient id="SVGID_1_" cx="297.9082" cy="-325.2158" r="42.5002" gradientTransform="matrix(1 0 0 -1 -249.5996 -275.9004)" gradientUnits="userSpaceOnUse">
	<stop  offset="0" style="stop-color:#C8C8C8"/>
	<stop  offset="1" style="stop-color:#000000"/>
</radialGradient>
<path fill="url(#SVGID_1_)" d="M48.311,6.815c23.468,0,42.498,19.029,42.498,42.503c0,23.47-19.029,42.498-42.498,42.498
	c-23.473,0-42.502-19.028-42.502-42.498C5.809,25.845,24.838,6.815,48.311,6.815L48.311,6.815z"/>
<path d="M78.861,78.271c-14.229,7.086-25.592,7.178-34.708,0.261c-10.441-8.542-20.875-11.425-32.802-9.077
	c0.09,0.145,0.145,0.307,0.159,0.479c11.742-2.295,22.028,0.561,32.333,8.99c4.603,3.493,9.755,5.239,15.538,5.239
	c5.816,0,12.279-1.786,19.451-5.324C78.801,78.648,78.801,78.452,78.861,78.271z"/>
<radialGradient id="SVGID_2_" cx="-292.9316" cy="625.626" r="30.6252" gradientTransform="matrix(-0.9668 -0.2554 -0.1254 0.4749 -162.2544 -297.55)" gradientUnits="userSpaceOnUse">
	<stop  offset="0" style="stop-color:#00FF00"/>
	<stop  offset="0.0925" style="stop-color:#00F900"/>
	<stop  offset="0.2178" style="stop-color:#00E800"/>
	<stop  offset="0.3619" style="stop-color:#00CB00"/>
	<stop  offset="0.5201" style="stop-color:#00A300"/>
	<stop  offset="0.6899" style="stop-color:#007000"/>
	<stop  offset="0.8664" style="stop-color:#003300"/>
	<stop  offset="1" style="stop-color:#000000"/>
</radialGradient>
<path fill="url(#SVGID_2_)" d="M77.566,80.141c-7.617,7.237-17.922,11.678-29.256,11.678c-15.74,0-29.482-8.555-36.826-21.271
	c13.332-2.742,23.281,1.725,31.98,8.85C52.9,86.564,64.313,86.65,77.566,80.141L77.566,80.141z"/>
<radialGradient id="SVGID_3_" cx="305.1729" cy="-314.5859" r="29.3587" fx="296.9767" fy="-311.2355" gradientTransform="matrix(1 0 0 -1 -249.5996 -275.9004)" gradientUnits="userSpaceOnUse">
	<stop  offset="0.0667" style="stop-color:#000000"/>
	<stop  offset="0.2727" style="stop-color:#2D2D2D"/>
	<stop  offset="0.5152" style="stop-color:#5E5E5E"/>
	<stop  offset="0.7212" style="stop-color:#8E8E8E"/>
	<stop  offset="1" style="stop-color:#C8C8C8"/>
</radialGradient>
<path fill="url(#SVGID_3_)" d="M54.518,10.113c15.971,0,29.688,13.315,30.642,29.74c0.95,16.424-11.228,29.741-27.198,29.741
	c-15.97,0-29.688-13.316-30.642-29.741C26.369,23.428,38.546,10.113,54.518,10.113L54.518,10.113z"/>
<path d="M27.415,59.884c-8.011-3.497-15.578-6.802-21-16.449l-0.239,0.134c0.004,0.123-0.013,0.244-0.046,0.361
	c5.493,9.593,13.066,12.911,21.084,16.413c9.176,4.007,19.576,8.548,28.763,23.526l0.426-0.262
	C47.134,68.495,36.658,63.92,27.415,59.884z"/>
<linearGradient id="SVGID_4_" gradientUnits="userSpaceOnUse" x1="6.6567" y1="52.9512" x2="29.5454" y2="52.9512">
	<stop  offset="0" style="stop-color:#FFFFFF"/>
	<stop  offset="0.0205" style="stop-color:#F4FBFE"/>
	<stop  offset="0.1353" style="stop-color:#BCE8F6"/>
	<stop  offset="0.2536" style="stop-color:#8AD7F0"/>
	<stop  offset="0.3728" style="stop-color:#5FC9EA"/>
	<stop  offset="0.493" style="stop-color:#3DBDE6"/>
	<stop  offset="0.6147" style="stop-color:#22B4E2"/>
	<stop  offset="0.7382" style="stop-color:#0FADE0"/>
	<stop  offset="0.865" style="stop-color:#04A9DE"/>
	<stop  offset="1" style="stop-color:#00A8DE"/>
</linearGradient>
<path fill="url(#SVGID_4_)" d="M28.721,47.483C14.983,48.391,7.545,52.787,7.52,61.295c-0.466-0.604-1.168-0.855-0.719-2.807
	c2.027-8.07,9.123-12.668,21.164-13.879C29.799,44.554,30.017,47.278,28.721,47.483L28.721,47.483z"/>
<linearGradient id="SVGID_5_" gradientUnits="userSpaceOnUse" x1="24.4722" y1="22.019" x2="19.0166" y2="30.4629">
	<stop  offset="0" style="stop-color:#FFFFFF"/>
	<stop  offset="0.0205" style="stop-color:#F4FBFE"/>
	<stop  offset="0.1353" style="stop-color:#BCE8F6"/>
	<stop  offset="0.2536" style="stop-color:#8AD7F0"/>
	<stop  offset="0.3728" style="stop-color:#5FC9EA"/>
	<stop  offset="0.493" style="stop-color:#3DBDE6"/>
	<stop  offset="0.6147" style="stop-color:#22B4E2"/>
	<stop  offset="0.7382" style="stop-color:#0FADE0"/>
	<stop  offset="0.865" style="stop-color:#04A9DE"/>
	<stop  offset="1" style="stop-color:#00A8DE"/>
</linearGradient>
<path fill="url(#SVGID_5_)" d="M28.743,28.805c-5.749-3.931-11.009-6.112-15.098-4.081c0.021-0.723,0.158-1.377,1.167-1.57
	c7.417-0.697,12.635,0.154,14.923,3.08C30.522,27.547,29.773,29.399,28.743,28.805L28.743,28.805z"/>
<linearGradient id="SVGID_6_" gradientUnits="userSpaceOnUse" x1="37.6479" y1="10.6006" x2="44.2178" y2="10.6006">
	<stop  offset="0" style="stop-color:#FFFFFF"/>
	<stop  offset="0.0205" style="stop-color:#F4FBFE"/>
	<stop  offset="0.1353" style="stop-color:#BCE8F6"/>
	<stop  offset="0.2536" style="stop-color:#8AD7F0"/>
	<stop  offset="0.3728" style="stop-color:#5FC9EA"/>
	<stop  offset="0.493" style="stop-color:#3DBDE6"/>
	<stop  offset="0.6147" style="stop-color:#22B4E2"/>
	<stop  offset="0.7382" style="stop-color:#0FADE0"/>
	<stop  offset="0.865" style="stop-color:#04A9DE"/>
	<stop  offset="1" style="stop-color:#00A8DE"/>
</linearGradient>
<path fill="url(#SVGID_6_)" d="M37.648,8.163c2.707-0.278,4.243,1.091,3.79,5.261c0,0.855,2.78-0.437,2.78-1.322
	C44.153,8.415,39.88,6.354,37.648,8.163L37.648,8.163z"/>
<linearGradient id="SVGID_7_" gradientUnits="userSpaceOnUse" x1="73.6279" y1="28.1191" x2="81.5518" y2="23.1826">
	<stop  offset="0" style="stop-color:#FFFFFF"/>
	<stop  offset="0.0205" style="stop-color:#F4FBFE"/>
	<stop  offset="0.1353" style="stop-color:#BCE8F6"/>
	<stop  offset="0.2536" style="stop-color:#8AD7F0"/>
	<stop  offset="0.3728" style="stop-color:#5FC9EA"/>
	<stop  offset="0.493" style="stop-color:#3DBDE6"/>
	<stop  offset="0.6147" style="stop-color:#22B4E2"/>
	<stop  offset="0.7382" style="stop-color:#0FADE0"/>
	<stop  offset="0.865" style="stop-color:#04A9DE"/>
	<stop  offset="1" style="stop-color:#00A8DE"/>
</linearGradient>
<path fill="url(#SVGID_7_)" d="M80.348,35.828c-1.779-9.273-6.468-13.773-11.994-16.882c-0.74-0.428-0.766,1.107,0.133,1.629
	c6.421,3.726,9.576,9.384,10.686,16.25C79.363,37.547,80.582,36.696,80.348,35.828L80.348,35.828z"/>
<linearGradient id="SVGID_8_" gradientUnits="userSpaceOnUse" x1="69.2383" y1="72.3818" x2="79.6367" y2="72.3818">
	<stop  offset="0" style="stop-color:#FFFFFF"/>
	<stop  offset="0.0205" style="stop-color:#F4FBFE"/>
	<stop  offset="0.1353" style="stop-color:#BCE8F6"/>
	<stop  offset="0.2536" style="stop-color:#8AD7F0"/>
	<stop  offset="0.3728" style="stop-color:#5FC9EA"/>
	<stop  offset="0.493" style="stop-color:#3DBDE6"/>
	<stop  offset="0.6147" style="stop-color:#22B4E2"/>
	<stop  offset="0.7382" style="stop-color:#0FADE0"/>
	<stop  offset="0.865" style="stop-color:#04A9DE"/>
	<stop  offset="1" style="stop-color:#00A8DE"/>
</linearGradient>
<path fill="url(#SVGID_8_)" d="M78.152,79.576c2.42-6.088-8.174-10.402-8.691-12.494c-0.895-0.891,1.074-2.613,2.889-1.568
	c3.258,2.758,6.471,5.594,7.287,12.522C79.141,78.55,78.648,79.063,78.152,79.576L78.152,79.576z"/>
<radialGradient id="SVGID_9_" cx="306.2666" cy="-317.0669" r="45.5739" gradientTransform="matrix(1 0 0 -1 -249.5996 -275.9004)" gradientUnits="userSpaceOnUse">
	<stop  offset="0" style="stop-color:#000000"/>
	<stop  offset="1" style="stop-color:#00FFFF"/>
</radialGradient>
<path fill="url(#SVGID_9_)" d="M51.921,17.624c12.884,0,23.952,10.869,24.718,24.278s-9.055,24.282-21.938,24.282
	c-12.729,0-23.688-10.615-24.684-23.807c-0.03-0.329-0.055-0.659-0.072-0.992c-0.723-13.123,8.524-23.76,20.655-23.76
	c0.219,0,0.433,0.004,0.646,0.008C51.473,17.628,51.693,17.624,51.921,17.624L51.921,17.624z"/>
<radialGradient id="SVGID_10_" cx="291.1426" cy="-319.5991" r="30.42" gradientTransform="matrix(1 0 0 -1 -249.5996 -275.9004)" gradientUnits="userSpaceOnUse">
	<stop  offset="0" style="stop-color:#00FFFF"/>
	<stop  offset="1" style="stop-color:#000000"/>
</radialGradient>
<path fill="url(#SVGID_10_)" d="M50.6,17.624c12.131,0,22.549,10.638,23.271,23.76c0.723,13.128-8.523,23.765-20.654,23.765
	c-12.13,0-22.549-10.637-23.272-23.765C29.222,28.262,38.469,17.624,50.6,17.624L50.6,17.624z"/>
<path opacity="0.5" fill="#FFFFFF" enable-background="new    " d="M43.28,60.966c-0.061,0-0.121-0.011-0.179-0.032
	c-0.167-0.064-0.287-0.213-0.315-0.391l-0.054-0.346c-0.666-4.313-1.011-8.688-1.027-13.016c-3.928-1.885-7.684-4.105-11.17-6.603
	l-0.259-0.182c-0.141-0.099-0.221-0.264-0.211-0.437c0.009-0.172,0.107-0.328,0.258-0.411l0.283-0.156
	c3.757-2.018,7.783-3.723,11.976-5.071c0.562-4.037,1.41-8.174,2.523-12.303l0.086-0.32c0.046-0.169,0.177-0.303,0.346-0.351
	c0.045-0.013,0.091-0.019,0.137-0.019c0.125,0,0.248,0.047,0.341,0.134l0.242,0.226c3.162,2.912,6.104,6.169,8.747,9.683
	c3.938-0.635,8.166-1.049,12.572-1.23c0,0,0.339-0.013,0.345-0.013c0.166,0,0.322,0.083,0.415,0.221
	c0.098,0.144,0.111,0.327,0.04,0.485l-0.136,0.3c-1.715,3.771-3.883,7.484-6.442,11.042c1.901,3.634,3.606,7.553,5.07,11.653
	l0.114,0.325c0.062,0.168,0.025,0.354-0.09,0.49c-0.096,0.112-0.234,0.176-0.381,0.176c-0.029,0-0.06-0.002-0.089-0.008
	l-0.341-0.062c-4.365-0.767-8.555-1.759-12.455-2.951c-2.884,2.937-6.079,5.827-9.761,8.83l-0.271,0.222
	C43.505,60.928,43.393,60.966,43.28,60.966z"/>
<radialGradient id="SVGID_11_" cx="299.3643" cy="-316.751" r="19.0015" gradientTransform="matrix(1 0 0 -1 -249.5996 -275.9004)" gradientUnits="userSpaceOnUse">
	<stop  offset="0" style="stop-color:#FFFF00"/>
	<stop  offset="1" style="stop-color:#FF0000"/>
</radialGradient>
<path fill="url(#SVGID_11_)" d="M54.007,50.938c-3.125,3.203-6.467,6.185-9.933,9.01l-0.271,0.222l-0.054-0.345
	c-0.677-4.387-1.022-8.816-1.022-13.255c-3.987-1.893-7.79-4.123-11.378-6.693l-0.263-0.185l0.283-0.156
	c3.893-2.09,7.979-3.794,12.188-5.129c0.575-4.238,1.441-8.426,2.554-12.553l0.086-0.321l0.242,0.226
	c3.26,3.002,6.221,6.307,8.87,9.859c4.236-0.698,8.521-1.097,12.812-1.273l0.323-0.012l-0.135,0.3
	c-1.8,3.955-4.021,7.691-6.574,11.206c2.017,3.819,3.732,7.793,5.187,11.863l0.115,0.324l-0.341-0.063
	C62.412,53.212,58.162,52.223,54.007,50.938L54.007,50.938z"/>
<linearGradient id="SVGID_12_" gradientUnits="userSpaceOnUse" x1="280.0723" y1="-314.5669" x2="311.4045" y2="-305.8006" gradientTransform="matrix(1 0 0 -1 -249.5996 -275.9004)">
	<stop  offset="0" style="stop-color:#FFFFFF;stop-opacity:0"/>
	<stop  offset="1" style="stop-color:#FFFFFF;stop-opacity:0.8"/>
</linearGradient>
<path fill="url(#SVGID_12_)" d="M50.6,17.624c6.453,0,12.42,3.007,16.707,7.802c-14.697,7.113-25.938,16.523-33.389,28.465
	c-2.284-3.636-3.721-7.917-3.973-12.505C29.222,28.262,38.469,17.624,50.6,17.624L50.6,17.624z"/>
<radialGradient id="SVGID_13_" cx="297.4814" cy="-414.9609" r="22.7846" fx="297.5863" fy="-414.9985" gradientTransform="matrix(0.9999 0.0158 0.0132 -0.8302 -249.9775 -281.4581)" gradientUnits="userSpaceOnUse">
	<stop  offset="0" style="stop-color:#FFFFFF"/>
	<stop  offset="1" style="stop-color:#FFFFFF;stop-opacity:0"/>
</radialGradient>
<ellipse fill="url(#SVGID_13_)" cx="42.166" cy="68.5" rx="22.428" ry="19.186"/>
</svg>
