<?xml version="1.0" encoding="UTF-8" standalone="no"?>
<!-- Generator: Adobe Illustrator 18.0.0, SVG Export Plug-In . SVG Version: 6.00 Build 0)  -->

<svg
   xmlns:dc="http://purl.org/dc/elements/1.1/"
   xmlns:cc="http://creativecommons.org/ns#"
   xmlns:rdf="http://www.w3.org/1999/02/22-rdf-syntax-ns#"
   xmlns:svg="http://www.w3.org/2000/svg"
   xmlns="http://www.w3.org/2000/svg"
   xmlns:sodipodi="http://sodipodi.sourceforge.net/DTD/sodipodi-0.dtd"
   xmlns:inkscape="http://www.inkscape.org/namespaces/inkscape"
   version="1.1"
   id="Capa_1"
   x="0px"
   y="0px"
   viewBox="0 0 48 48"
   xml:space="preserve"
   sodipodi:docname="javascript.svg"
   inkscape:version="0.92.2 (5c3e80d, 2017-08-06)"
   width="48"
   height="48"><metadata
     id="metadata43"><rdf:RDF><cc:Work
         rdf:about=""><dc:format>image/svg+xml</dc:format><dc:type
           rdf:resource="http://purl.org/dc/dcmitype/StillImage" /><dc:title /></cc:Work></rdf:RDF></metadata><defs
     id="defs41" /><sodipodi:namedview
     pagecolor="#ffffff"
     bordercolor="#666666"
     borderopacity="1"
     objecttolerance="10"
     gridtolerance="10"
     guidetolerance="10"
     inkscape:pageopacity="0"
     inkscape:pageshadow="2"
     inkscape:window-width="1920"
     inkscape:window-height="1001"
     id="namedview39"
     showgrid="false"
     inkscape:zoom="16.275862"
     inkscape:cx="29.281127"
     inkscape:cy="24.182709"
     inkscape:window-x="-9"
     inkscape:window-y="-9"
     inkscape:window-maximized="1"
     inkscape:current-layer="Capa_1" /><path
     inkscape:connector-curvature="0"
     style="fill:#ffffff;stroke-width:0.80229557"
     id="path2"
     d="M 6.5,33.931035 V 46.344828 C 6.5,47.179862 7.4488889,48 8.4156666,48 H 39.584333 C 40.551111,48 41.5,47.179862 41.5,46.344828 V 33.931035 Z m 15.960778,8.744275 c 0,0.392276 -0.06767,0.722483 -0.202222,0.989794 -0.135334,0.26731 -0.315778,0.482482 -0.542112,0.644689 -0.227111,0.162207 -0.487666,0.275586 -0.781666,0.339311 -0.294,0.06372 -0.598111,0.096 -0.909222,0.096 -0.156334,0 -0.339112,-0.01738 -0.547556,-0.05131 -0.208444,-0.03393 -0.425444,-0.08607 -0.648667,-0.158069 -0.223222,-0.072 -0.437889,-0.153103 -0.643222,-0.24331 C 17.98,44.202207 17.806556,44.100414 17.665,43.987035 l 0.542111,-0.916138 c 0.07078,0.05214 0.171889,0.107586 0.303333,0.163862 0.131445,0.05628 0.274556,0.109241 0.430889,0.158069 0.155556,0.04966 0.318889,0.09186 0.489223,0.129931 0.170333,0.03807 0.329777,0.05628 0.478333,0.05628 0.374889,0 0.675111,-0.07779 0.898333,-0.231725 0.223222,-0.153931 0.341445,-0.417103 0.356222,-0.786206 V 36.17959 h 1.297334 z M 28.634,43.281104 c -0.116667,0.283034 -0.281556,0.532137 -0.494667,0.746482 -0.213111,0.214345 -0.475222,0.386483 -0.787111,0.514759 -0.311889,0.128276 -0.666555,0.192 -1.063222,0.192 -0.170333,0 -0.345333,-0.0099 -0.526556,-0.02814 -0.181222,-0.01821 -0.364,-0.05131 -0.547555,-0.096 C 25.030556,44.564685 24.854778,44.502619 24.688333,44.42317 24.521889,44.34372 24.378,44.247722 24.257444,44.134343 l 0.223223,-0.973241 c 0.09878,0.06041 0.224777,0.119172 0.377222,0.175448 0.152444,0.05628 0.309555,0.109241 0.472889,0.158069 0.162555,0.04966 0.325889,0.08855 0.489222,0.119172 0.162556,0.02979 0.315,0.04552 0.457333,0.04552 0.432445,0 0.763778,-0.107586 0.994,-0.322758 0.230223,-0.215173 0.345334,-0.533793 0.345334,-0.955862 0,-0.256552 -0.08167,-0.475035 -0.244223,-0.656276 -0.163333,-0.181242 -0.367111,-0.345104 -0.611333,-0.492414 -0.244222,-0.14731 -0.508667,-0.293793 -0.792555,-0.441103 -0.283889,-0.147311 -0.549889,-0.321104 -0.797223,-0.520552 -0.248111,-0.199448 -0.454222,-0.43531 -0.616777,-0.706759 -0.163334,-0.271448 -0.244223,-0.610758 -0.244223,-1.017931 0,-0.369103 0.06378,-0.697655 0.191334,-0.984 0.127555,-0.286345 0.299444,-0.530483 0.515666,-0.729931 0.216223,-0.199448 0.468223,-0.352552 0.755223,-0.458483 0.287,-0.105931 0.590333,-0.158069 0.909222,-0.158069 0.325889,0 0.655666,0.03228 0.988555,0.096 0.332889,0.06372 0.602,0.168 0.808111,0.311173 -0.04278,0.09765 -0.09256,0.205241 -0.148555,0.322758 -0.05678,0.117518 -0.110445,0.225932 -0.159445,0.327725 -0.04978,0.101793 -0.09256,0.187034 -0.127555,0.254896 -0.03578,0.06786 -0.05678,0.105931 -0.06378,0.113379 -0.04278,-0.02234 -0.09022,-0.05214 -0.143889,-0.09021 -0.05367,-0.03807 -0.129889,-0.07531 -0.228666,-0.11338 -0.09956,-0.03807 -0.231,-0.06372 -0.393556,-0.07945 -0.163333,-0.01572 -0.372556,-0.01159 -0.627667,0.01159 -0.142333,0.01572 -0.276111,0.05793 -0.404444,0.129931 -0.128333,0.072 -0.241889,0.159724 -0.340667,0.265655 -0.09956,0.105931 -0.178111,0.224276 -0.234111,0.35669 -0.05678,0.131586 -0.08478,0.259035 -0.08478,0.379035 0,0.301241 0.08089,0.544551 0.244223,0.729931 0.162555,0.185379 0.364777,0.346758 0.605888,0.48662 0.241112,0.139862 0.502445,0.275587 0.787112,0.407173 0.283111,0.131586 0.547555,0.292965 0.792555,0.480827 0.245,0.187862 0.448,0.424552 0.611333,0.706759 0.162556,0.283034 0.244223,0.646345 0.244223,1.091586 0.0031,0.302069 -0.056,0.594207 -0.172667,0.877242 z" /><path
     inkscape:connector-curvature="0"
     style="fill:#ffffff;stroke-width:0.80229557"
     id="path4"
     d="M 41.5,32.275862 V 11.568 c 0,-0.633931 -0.07155,-1.103172 -0.427778,-1.483035 l -9.051,-9.62979267 C 31.749778,0.16634474 31.373333,-9e-8 30.988333,-9e-8 H 8.4156666 C 7.4932222,-9e-8 6.5,0.75806888 6.5,2.4215172 V 32.275862 Z M 24.388889,26.482759 c 0,0.456827 -0.347667,0.827586 -0.777778,0.827586 -0.430111,0 -0.777778,-0.370759 -0.777778,-0.827586 V 24 c 0,-0.456828 0.347667,-0.827586 0.777778,-0.827586 0.430111,0 0.777778,0.370758 0.777778,0.827586 z M 30.611111,2.8063447 c 0,-0.3790344 0.430111,-0.5685517 0.682111,-0.3004137 l 7.851667,8.354483 c 0.252,0.268138 0.07389,0.725793 -0.282333,0.725793 H 30.611111 Z M 29.833333,19.034483 v -3.310345 c 0,-0.456 -0.348444,-0.827586 -0.777777,-0.827586 -0.430112,0 -0.777778,-0.370759 -0.777778,-0.827587 0,-0.456827 0.347666,-0.827586 0.777778,-0.827586 1.286444,0 2.333333,1.113931 2.333333,2.482759 v 3.310345 c 0,0.912827 0.697667,1.655172 1.555555,1.655172 0.430112,0 0.777778,0.370759 0.777778,0.827586 0,0.456828 -0.347666,0.827587 -0.777778,0.827587 -0.857888,0 -1.555555,0.742344 -1.555555,1.655172 v 3.310345 c 0,1.368827 -1.046889,2.482758 -2.333333,2.482758 -0.430112,0 -0.777778,-0.370758 -0.777778,-0.827586 0,-0.456827 0.347666,-0.827586 0.777778,-0.827586 0.429333,0 0.777777,-0.371586 0.777777,-0.827586 V 24 c 0,-0.993103 0.421556,-1.87531 1.074889,-2.482759 -0.653333,-0.607448 -1.074889,-1.489655 -1.074889,-2.482758 z M 23.611111,17.37931 c 0.644,0 1.166667,0.556138 1.166667,1.24138 0,0.685241 -0.522667,1.241379 -1.166667,1.241379 -0.644,0 -1.166667,-0.556138 -1.166667,-1.241379 0,-0.685242 0.522667,-1.24138 1.166667,-1.24138 z m -9.333333,3.310345 c 0.857889,0 1.555555,-0.742345 1.555555,-1.655172 v -3.310345 c 0,-1.368828 1.046889,-2.482759 2.333334,-2.482759 0.430111,0 0.777777,0.370759 0.777777,0.827586 0,0.456828 -0.347666,0.827587 -0.777777,0.827587 -0.429334,0 -0.777778,0.371586 -0.777778,0.827586 v 3.310345 c 0,0.993103 -0.421556,1.87531 -1.074889,2.482758 0.653333,0.607449 1.074889,1.489656 1.074889,2.482759 v 3.310345 c 0,0.456 0.348444,0.827586 0.777778,0.827586 0.430111,0 0.777777,0.370759 0.777777,0.827586 0,0.456828 -0.347666,0.827586 -0.777777,0.827586 -1.286445,0 -2.333334,-1.113931 -2.333334,-2.482758 V 24 c 0,-0.912828 -0.697666,-1.655172 -1.555555,-1.655172 -0.430111,0 -0.777778,-0.370759 -0.777778,-0.827587 0,-0.456827 0.347667,-0.827586 0.777778,-0.827586 z" /><g
     id="g8"
     style="fill:#ffffff"
     transform="translate(0,-10)" /><g
     id="g10"
     style="fill:#ffffff"
     transform="translate(0,-10)" /><g
     id="g12"
     style="fill:#ffffff"
     transform="translate(0,-10)" /><g
     id="g14"
     style="fill:#ffffff"
     transform="translate(0,-10)" /><g
     id="g16"
     style="fill:#ffffff"
     transform="translate(0,-10)" /><g
     id="g18"
     style="fill:#ffffff"
     transform="translate(0,-10)" /><g
     id="g20"
     style="fill:#ffffff"
     transform="translate(0,-10)" /><g
     id="g22"
     style="fill:#ffffff"
     transform="translate(0,-10)" /><g
     id="g24"
     style="fill:#ffffff"
     transform="translate(0,-10)" /><g
     id="g26"
     style="fill:#ffffff"
     transform="translate(0,-10)" /><g
     id="g28"
     style="fill:#ffffff"
     transform="translate(0,-10)" /><g
     id="g30"
     style="fill:#ffffff"
     transform="translate(0,-10)" /><g
     id="g32"
     style="fill:#ffffff"
     transform="translate(0,-10)" /><g
     id="g34"
     style="fill:#ffffff"
     transform="translate(0,-10)" /><g
     id="g36"
     style="fill:#ffffff"
     transform="translate(0,-10)" /><rect
     style="opacity:1;fill:#ffffff;fill-opacity:1;fill-rule:nonzero;stroke:#ffffff;stroke-width:0.95499998;stroke-miterlimit:4;stroke-dasharray:none;stroke-opacity:1"
     id="rect831"
     width="25.743645"
     height="17.510592"
     x="10.444915"
     y="12.855931" /></svg>