<?xml version="1.0" encoding="UTF-8" standalone="no"?>
<!-- Generator: Adobe Illustrator 15.0.0, SVG Export Plug-In . SVG Version: 6.00 Build 0)  -->

<svg
   xmlns:dc="http://purl.org/dc/elements/1.1/"
   xmlns:cc="http://creativecommons.org/ns#"
   xmlns:rdf="http://www.w3.org/1999/02/22-rdf-syntax-ns#"
   xmlns:svg="http://www.w3.org/2000/svg"
   xmlns="http://www.w3.org/2000/svg"
   xmlns:sodipodi="http://sodipodi.sourceforge.net/DTD/sodipodi-0.dtd"
   xmlns:inkscape="http://www.inkscape.org/namespaces/inkscape"
   version="1.1"
   x="0px"
   y="0px"
   width="30px"
   height="30px"
   viewBox="0 0 30 30"
   enable-background="new 0 0 30 30"
   xml:space="preserve"
   id="svg2"
   inkscape:version="0.48.4 r9939"
   sodipodi:docname="location_mark.svg"><metadata
   id="metadata19"><rdf:RDF><cc:Work
       rdf:about=""><dc:format>image/svg+xml</dc:format><dc:type
         rdf:resource="http://purl.org/dc/dcmitype/StillImage" /><dc:title></dc:title></cc:Work></rdf:RDF></metadata><defs
   id="defs17">
	
	
	
	
</defs><sodipodi:namedview
   pagecolor="#ffffff"
   bordercolor="#666666"
   borderopacity="1"
   objecttolerance="10"
   gridtolerance="10"
   guidetolerance="10"
   inkscape:pageopacity="0"
   inkscape:pageshadow="2"
   inkscape:window-width="1920"
   inkscape:window-height="999"
   id="namedview15"
   showgrid="false"
   inkscape:zoom="22.250293"
   inkscape:cx="13.491819"
   inkscape:cy="16.659921"
   inkscape:window-x="-9"
   inkscape:window-y="-9"
   inkscape:window-maximized="1"
   inkscape:current-layer="svg2" />
<g
   id="DO_NOT_EDIT_-_BOUNDING_BOX">
	<rect
   id="BOUNDING_BOX"
   fill="none"
   width="30"
   height="30" />
</g>
<path
   style="fill:#ffffff"
   inkscape:connector-curvature="0"
   id="path13"
   d="m 15,2.1348297 c -4.418,0 -8,3.677 -8,8.0000003 0,6 6.4,18 8,18 1.6,0 8,-12 8,-18 C 23,5.8118297 19.418,2.1348297 15,2.1348297 z M 15,14.13483 c -2.205,0 -4,-1.795 -4,-4 0,-2.2050003 1.795,-4.0000003 4,-4.0000003 2.205,0 4,1.795 4,4.0000003 0,2.205 -1.795,4 -4,4 z" />
<path
   style="fill:#ea2227"
   inkscape:connector-curvature="0"
   id="path19"
   d="m 5.1942089,28.719428 c -0.2194279,0 -0.4397129,-0.098 -0.6059982,-0.292997 -0.3359989,-0.390997 -0.3359989,-1.022991 0,-1.413988 L 26.873858,1.0126754 c 0.335142,-0.39099653 0.876855,-0.39099653 1.211997,0 0.335142,0.3909965 0.335142,1.0229908 0,1.4139873 L 5.8002071,28.426431 c -0.1671423,0.194998 -0.3865702,0.292997 -0.6059982,0.292997 l 0,0 z" /></svg>