<?xml version="1.0" encoding="UTF-8" standalone="no"?>
<!-- Generator: Adobe Illustrator 15.0.0, SVG Export Plug-In . SVG Version: 6.00 Build 0)  -->

<svg
   xmlns:dc="http://purl.org/dc/elements/1.1/"
   xmlns:cc="http://creativecommons.org/ns#"
   xmlns:rdf="http://www.w3.org/1999/02/22-rdf-syntax-ns#"
   xmlns:svg="http://www.w3.org/2000/svg"
   xmlns="http://www.w3.org/2000/svg"
   xmlns:sodipodi="http://sodipodi.sourceforge.net/DTD/sodipodi-0.dtd"
   xmlns:inkscape="http://www.inkscape.org/namespaces/inkscape"
   version="1.1"
   x="0px"
   y="0px"
   width="30px"
   height="30px"
   viewBox="0 0 30 30"
   enable-background="new 0 0 30 30"
   xml:space="preserve"
   id="svg2"
   inkscape:version="0.48.4 r9939"
   sodipodi:docname="lock.svg"><metadata
   id="metadata23"><rdf:RDF><cc:Work
       rdf:about=""><dc:format>image/svg+xml</dc:format><dc:type
         rdf:resource="http://purl.org/dc/dcmitype/StillImage" /><dc:title></dc:title></cc:Work></rdf:RDF></metadata><defs
   id="defs21">
	

		
		
		
		
		
	</defs><sodipodi:namedview
   pagecolor="#ffffff"
   bordercolor="#666666"
   borderopacity="1"
   objecttolerance="10"
   gridtolerance="10"
   guidetolerance="10"
   inkscape:pageopacity="0"
   inkscape:pageshadow="2"
   inkscape:window-width="1920"
   inkscape:window-height="999"
   id="namedview19"
   showgrid="false"
   inkscape:zoom="7.8666667"
   inkscape:cx="15"
   inkscape:cy="15"
   inkscape:window-x="-9"
   inkscape:window-y="-9"
   inkscape:window-maximized="1"
   inkscape:current-layer="svg2" />
<g
   id="DO_NOT_EDIT_-_BOUNDING_BOX">
	<rect
   id="BOUNDING_BOX"
   fill="none"
   width="30"
   height="30" />
</g>
<path
   d="M 24,11 H 23 V 8 C 23,4.7 20.299,2 17,2 H 13 C 9.699,2 7,4.7 7,8 v 3 H 6 c -1.1,0 -2,0.9 -2,2 v 13 c 0,1.1 0.9,2 2,2 h 18 c 1.1,0 2,-0.9 2,-2 V 13 c 0,-1.1 -0.9,-2 -2,-2 z m -8,9.289 V 24 H 14 V 20.289 C 13.119,19.902 12.5,19.023 12.5,18 c 0,-1.381 1.121,-2.5 2.5,-2.5 1.379,0 2.5,1.119 2.5,2.5 0,1.023 -0.619,1.902 -1.5,2.289 z M 20,11 H 10 V 8 c 0,-1.654 1.346,-3 3,-3 h 4 c 1.654,0 3,1.346 3,3 v 3 z"
   id="path15"
   inkscape:connector-curvature="0"
   style="fill:#ffffff" /><rect
   width="30"
   height="30"
   id="rect17"
   x="0"
   y="0"
   style="fill:none" />
<rect
   style="opacity:0;fill:#1080dd;fill-opacity:0.94117647;stroke-width:0;stroke-miterlimit:4;stroke-dasharray:none"
   id="rect3011"
   width="2.0338984"
   height="0.88983053"
   x="6.8644066"
   y="13.474576" /></svg>