<?xml version="1.0" encoding="UTF-8" standalone="no"?>
<!-- Generator: Adobe Illustrator 14.0.0, SVG Export Plug-In  -->

<svg
   xmlns:dc="http://purl.org/dc/elements/1.1/"
   xmlns:cc="http://creativecommons.org/ns#"
   xmlns:rdf="http://www.w3.org/1999/02/22-rdf-syntax-ns#"
   xmlns:svg="http://www.w3.org/2000/svg"
   xmlns="http://www.w3.org/2000/svg"
   xmlns:sodipodi="http://sodipodi.sourceforge.net/DTD/sodipodi-0.dtd"
   xmlns:inkscape="http://www.inkscape.org/namespaces/inkscape"
   version="1.1"
   x="0px"
   y="0px"
   width="80px"
   height="80px"
   viewBox="0 0 67 57"
   enable-background="new 0 0 67 57"
   xml:space="preserve"
   id="svg2"
   inkscape:version="0.48.4 r9939"
   sodipodi:docname="mail.svg"><metadata
   id="metadata27"><rdf:RDF><cc:Work
       rdf:about=""><dc:format>image/svg+xml</dc:format><dc:type
         rdf:resource="http://purl.org/dc/dcmitype/StillImage" /><dc:title></dc:title></cc:Work></rdf:RDF></metadata><sodipodi:namedview
   pagecolor="#ffffff"
   bordercolor="#666666"
   borderopacity="1"
   objecttolerance="10"
   gridtolerance="10"
   guidetolerance="10"
   inkscape:pageopacity="0"
   inkscape:pageshadow="2"
   inkscape:window-width="1920"
   inkscape:window-height="999"
   id="namedview25"
   showgrid="false"
   inkscape:zoom="8.34386"
   inkscape:cx="50.51326"
   inkscape:cy="44.231412"
   inkscape:window-x="-9"
   inkscape:window-y="-9"
   inkscape:window-maximized="1"
   inkscape:current-layer="svg2" />
<defs
   id="defs4">
</defs>
<rect
   fill="none"
   width="80"
   height="80"
   id="rect6" />
<rect
   x="10.5"
   y="5.5"
   fill="none"
   width="46"
   height="46"
   id="rect8" />


<linearGradient
   id="SVGID_1_"
   gradientUnits="userSpaceOnUse"
   x1="34.1465"
   y1="49"
   x2="34.1465"
   y2="7.0005">
	<stop
   offset="0"
   style="stop-color:#ffffff;stop-opacity:1;"
   id="stop15" />
	<stop
   offset="0.50309998"
   style="stop-color:#ffffff;stop-opacity:1;"
   id="stop17" />
	<stop
   offset="0.9693"
   style="stop-color:#FFFFFF"
   id="stop19" />
</linearGradient>
<path
   fill="url(#SVGID_1_)"
   d="M54.293,26.718c0,10.671-3.061,13.417-8.373,13.417c-2.656,0-4.414-0.499-5.584-2.163  c-1.711,0.856-4.728,2.116-7.248,2.116c-4.818,0-8.193-2.386-8.193-11.301c0-7.428,1.754-12.021,8.774-12.021  c1.625,0,4.641,1.037,4.641,1.037v-0.632h4.905v9.003c0,8.555,0.588,9.229,2.705,9.229c2.253,0,3.376-1.077,3.376-8.686v-0.81  c0-10.177-4.322-14.14-14.634-14.14c-10.443,0-15.709,5.179-15.709,16.163c0,11.931,4.41,16.249,15.709,16.249  c1.801,0,6.439-0.403,6.439-0.403l0.181,4.774c0,0-4.459,0.448-6.62,0.448C21.34,49,14,44.181,14,27.932  C14,13.391,22.014,7,34.662,7c13.375,0,19.631,6.525,19.631,18.95V26.718z M38.672,34.1C38.4,32.57,38.31,30.633,38.31,28.2v-6.122  c0,0-2.297-0.678-3.6-0.678c-4.054,0-4.865,1.938-4.865,7.432c0,5.225,1.53,6.437,3.603,6.437  C35.249,35.269,37.318,34.596,38.672,34.1z"
   id="path21" />
<path
   fill="#FFFFFF"
   d="M43.215,17.172H38.31v0.632c0,0-3.016-1.037-4.641-1.037c-7.021,0-8.774,4.593-8.774,12.021  c0,0.137,0.008,0.258,0.01,0.392c0.098-7.064,1.94-11.412,8.765-11.412c1.625,0,4.641,1.037,4.641,1.037v-0.632h4.905V17.172z   M18.967,28.492c-0.002,0.148-0.014,0.288-0.014,0.439c0,11.931,4.41,16.249,15.709,16.249c1.801,0,6.439-0.403,6.439-0.403v-1  c0,0-4.639,0.403-6.439,0.403C23.547,44.181,19.109,39.984,18.967,28.492z M45.92,35.403c-2.117,0-2.705-0.674-2.705-9.229v1  c0,8.555,0.588,9.229,2.705,9.229c2.253,0,3.376-1.077,3.376-8.686v-0.81c0-0.018-0.001-0.032-0.001-0.05  C49.279,34.333,48.158,35.403,45.92,35.403z M34.662,7C22.014,7,14,13.391,14,27.932c0,0.242,0.007,0.474,0.01,0.711  C14.119,14.313,22.101,8,34.662,8c13.344,0,19.599,6.497,19.628,18.865c0.001-0.051,0.003-0.096,0.003-0.147V25.95  C54.293,13.525,48.037,7,34.662,7z M29.852,29.183c-0.003,0.214-0.007,0.424-0.007,0.649c0,5.225,1.53,6.437,3.603,6.437  c1.802,0,3.871-0.673,5.225-1.169c-0.053-0.297-0.094-0.624-0.133-0.952c-1.354,0.49-3.346,1.121-5.092,1.121  C31.424,35.269,29.921,34.102,29.852,29.183z"
   id="path23" />
</svg>