<?xml version="1.0" encoding="UTF-8" standalone="no"?>
<!-- Generator: Adobe Illustrator 15.0.0, SVG Export Plug-In . SVG Version: 6.00 Build 0)  -->

<svg
   xmlns:dc="http://purl.org/dc/elements/1.1/"
   xmlns:cc="http://creativecommons.org/ns#"
   xmlns:rdf="http://www.w3.org/1999/02/22-rdf-syntax-ns#"
   xmlns:svg="http://www.w3.org/2000/svg"
   xmlns="http://www.w3.org/2000/svg"
   xmlns:sodipodi="http://sodipodi.sourceforge.net/DTD/sodipodi-0.dtd"
   xmlns:inkscape="http://www.inkscape.org/namespaces/inkscape"
   version="1.1"
   x="0px"
   y="0px"
   width="30px"
   height="30px"
   viewBox="0 0 30 30"
   enable-background="new 0 0 30 30"
   xml:space="preserve"
   id="svg2"
   inkscape:version="0.48.4 r9939"
   sodipodi:docname="music_file.svg"><metadata
   id="metadata19"><rdf:RDF><cc:Work
       rdf:about=""><dc:format>image/svg+xml</dc:format><dc:type
         rdf:resource="http://purl.org/dc/dcmitype/StillImage" /><dc:title></dc:title></cc:Work></rdf:RDF></metadata><defs
   id="defs17">
	
	
	
	
</defs><sodipodi:namedview
   pagecolor="#ffffff"
   bordercolor="#666666"
   borderopacity="1"
   objecttolerance="10"
   gridtolerance="10"
   guidetolerance="10"
   inkscape:pageopacity="0"
   inkscape:pageshadow="2"
   inkscape:window-width="1920"
   inkscape:window-height="999"
   id="namedview15"
   showgrid="false"
   inkscape:zoom="15.733333"
   inkscape:cx="23.454243"
   inkscape:cy="5.2885208"
   inkscape:window-x="-9"
   inkscape:window-y="-9"
   inkscape:window-maximized="1"
   inkscape:current-layer="svg2" />
<g
   id="DO_NOT_EDIT_-_BOUNDING_BOX">
	<rect
   id="BOUNDING_BOX"
   fill="none"
   width="30"
   height="30" />
</g>
<path
   style="fill:#ffffff"
   inkscape:connector-curvature="0"
   id="path13"
   d="m 22.123,23.637 c 0.227,0 0.453,0.015 0.678,0.044 v -7.452 c 0,-1.096 0.832,-1.669 1.654,-1.669 0.035,0 0.119,0.004 0.152,0.007 0.129,0.019 0.262,0.039 0.393,0.059 V 3 C 25,2.449 24.551,2 24,2 H 4 C 3.45,2 3,2.449 3,3 v 24 c 0,0.55 0.45,1 1,1 H 18.293 C 18.107,27.636 18,27.239 18,26.818 c 0,-1.784 1.811,-3.181 4.123,-3.181 z M 6.903,7.971 h 14.192 c 0.553,0 1,0.447 1,1 0,0.553 -0.447,1 -1,1 H 6.903 c -0.553,0 -1,-0.447 -1,-1 0,-0.553 0.448,-1 1,-1 z m 0,4 h 14.192 c 0.553,0 1,0.447 1,1 0,0.553 -0.447,1 -1,1 H 6.903 c -0.553,0 -1,-0.447 -1,-1 0,-0.553 0.448,-1 1,-1 z m 0,4 h 14.192 c 0.553,0 1,0.447 1,1 0,0.553 -0.447,1 -1,1 H 6.903 c -0.553,0 -1,-0.447 -1,-1 0,-0.553 0.448,-1 1,-1 z m 0,6 c -0.553,0 -1,-0.447 -1,-1 0,-0.553 0.447,-1 1,-1 h 14.192 c 0.553,0 1,0.447 1,1 0,0.553 -0.447,1 -1,1 H 6.903 z m 17.603,-6.409 c 0,0 -0.705,-0.072 -0.705,0.667 V 24.99 C 23.313,24.77 22.74,24.637 22.123,24.637 20.396,24.637 19,25.613 19,26.819 19,28.023 20.396,29 22.123,29 c 1.723,0 3.117,-0.977 3.117,-2.182 v -7.561 c 1.436,0.219 2.75,0.519 3.84,0.822 v -3.654 c -1.658,-0.429 -3.307,-0.682 -4.574,-0.863 z" />
</svg>