<?xml version="1.0" encoding="UTF-8" standalone="no"?>
<svg
   xmlns:dc="http://purl.org/dc/elements/1.1/"
   xmlns:cc="http://creativecommons.org/ns#"
   xmlns:rdf="http://www.w3.org/1999/02/22-rdf-syntax-ns#"
   xmlns:svg="http://www.w3.org/2000/svg"
   xmlns="http://www.w3.org/2000/svg"
   xmlns:sodipodi="http://sodipodi.sourceforge.net/DTD/sodipodi-0.dtd"
   xmlns:inkscape="http://www.inkscape.org/namespaces/inkscape"
   height="30px"
   version="1.1"
   viewBox="0 0 30 30"
   width="30px"
   x="0px"
   y="0px"
   id="svg10"
   sodipodi:docname="paste.svg"
   inkscape:version="0.92.2 (5c3e80d, 2017-08-06)">
  <metadata
     id="metadata16">
    <rdf:RDF>
      <cc:Work
         rdf:about="">
        <dc:format>image/svg+xml</dc:format>
        <dc:type
           rdf:resource="http://purl.org/dc/dcmitype/StillImage" />
        <dc:title></dc:title>
      </cc:Work>
    </rdf:RDF>
  </metadata>
  <defs
     id="defs14" />
  <sodipodi:namedview
     pagecolor="#ffffff"
     bordercolor="#666666"
     borderopacity="1"
     objecttolerance="10"
     gridtolerance="10"
     guidetolerance="10"
     inkscape:pageopacity="0"
     inkscape:pageshadow="2"
     inkscape:window-width="1920"
     inkscape:window-height="1001"
     id="namedview12"
     showgrid="false"
     inkscape:zoom="22.250293"
     inkscape:cx="12.712506"
     inkscape:cy="15.598001"
     inkscape:window-x="-9"
     inkscape:window-y="-9"
     inkscape:window-maximized="1"
     inkscape:current-layer="svg10" />
  <path
     d="m 17.534,21.551 -2.938,-6.48 c -0.229,-0.442 -0.629,-0.457 -0.893,-0.035 l -1.132,1.777 C 10.672,16.043 9.104,14.58 8.011,12.661 7.776,12.247 7.327,12.198 7.035,12.358 c -0.661,0.36 -1.454,0.723 -1.879,1.021 -0.295,0.207 -0.358,0.516 -0.189,0.853 1.275,2.546 3.371,4.409 5.769,5.515 L 9.39,21.918 c -0.263,0.42 -0.072,0.787 0.422,0.816 L 17.049,22.3 c 0.495,0.031 0.714,-0.307 0.485,-0.749 z M 18,2 C 18,1.448 17.553,1 17,1 H 9 C 8.447,1 8,1.448 8,2 V 5 H 18 Z M 4.074,14.68 C 3.684,13.9 3.888,13.049 4.584,12.561 4.919,12.326 5.38,12.089 5.869,11.839 6.1,11.721 6.337,11.6 6.557,11.479 c 0.248,-0.135 0.53,-0.205 0.816,-0.205 0.626,0 1.189,0.333 1.508,0.892 0.037,0.063 0.082,0.118 0.119,0.18 V 10 C 9,8.896 9.897,8 11,8 h 12 c 0.266,0 0.52,0.105 0.707,0.293 L 24,8.586 V 4 C 24,3.447 23.553,3 23,3 h -4 v 2 c 0,0.553 -0.447,1 -1,1 H 8 C 7.447,6 7,5.553 7,5 V 3 H 3 C 2.447,3 2,3.448 2,4 v 23 c 0,0.553 0.447,1 1,1 H 9 V 23.516 C 8.756,23.377 8.558,23.182 8.428,22.932 8.184,22.457 8.225,21.895 8.542,21.387 L 9,20.649 V 19.95 C 6.865,18.672 5.175,16.875 4.074,14.68 Z M 23,9 H 11 c -0.549,0 -1,0.449 -1,1 v 3.717 c 0.649,0.747 1.383,1.371 2.202,1.816 l 0.658,-1.035 c 0.305,-0.486 0.775,-0.77 1.289,-0.77 0.279,0 0.544,0.086 0.776,0.242 h 9.17 c 0.553,0 1,0.447 1,1 0,0.553 -0.447,1 -1,1 h -7.994 l 0.908,2.002 h 7.086 c 0.553,0 1,0.445 1,1 0,0.551 -0.447,1 -1,1 h -6.179 l 0.528,1.166 c 0.138,0.264 0.19,0.551 0.172,0.832 h 5.479 c 0.553,0 1,0.447 1,1 0,0.553 -0.447,1 -1,1 H 13.902 c -0.337,0 -0.62,-0.178 -0.801,-0.432 -1.363,0.08 -2.646,0.158 -3.102,0.184 V 28 c 0,0.549 0.451,1 1,1 h 16 c 0.551,0 1,-0.451 1,-1 V 14 Z"
     id="path6"
     inkscape:connector-curvature="0"
     style="fill:#ffffff" />
  <rect
     fill="none"
     height="30"
     width="30"
     id="rect8" />
</svg>
