<?xml version="1.0" encoding="UTF-8" standalone="no"?>
<!-- Generator: Adobe Illustrator 15.0.0, SVG Export Plug-In . SVG Version: 6.00 Build 0)  -->

<svg
   xmlns:dc="http://purl.org/dc/elements/1.1/"
   xmlns:cc="http://creativecommons.org/ns#"
   xmlns:rdf="http://www.w3.org/1999/02/22-rdf-syntax-ns#"
   xmlns:svg="http://www.w3.org/2000/svg"
   xmlns="http://www.w3.org/2000/svg"
   xmlns:sodipodi="http://sodipodi.sourceforge.net/DTD/sodipodi-0.dtd"
   xmlns:inkscape="http://www.inkscape.org/namespaces/inkscape"
   version="1.1"
   x="0px"
   y="0px"
   width="30px"
   height="30px"
   viewBox="0 0 30 30"
   enable-background="new 0 0 30 30"
   xml:space="preserve"
   id="svg2"
   inkscape:version="0.48.4 r9939"
   sodipodi:docname="personalise.svg"><metadata
   id="metadata19"><rdf:RDF><cc:Work
       rdf:about=""><dc:format>image/svg+xml</dc:format><dc:type
         rdf:resource="http://purl.org/dc/dcmitype/StillImage" /><dc:title></dc:title></cc:Work></rdf:RDF></metadata><defs
   id="defs17">
	
	
	
	
</defs><sodipodi:namedview
   pagecolor="#ffffff"
   bordercolor="#666666"
   borderopacity="1"
   objecttolerance="10"
   gridtolerance="10"
   guidetolerance="10"
   inkscape:pageopacity="0"
   inkscape:pageshadow="2"
   inkscape:window-width="1920"
   inkscape:window-height="999"
   id="namedview15"
   showgrid="false"
   inkscape:zoom="22.250293"
   inkscape:cx="34.251328"
   inkscape:cy="14.876701"
   inkscape:window-x="-9"
   inkscape:window-y="-9"
   inkscape:window-maximized="1"
   inkscape:current-layer="svg2" />
<g
   id="DO_NOT_EDIT_-_BOUNDING_BOX">
	<rect
   id="BOUNDING_BOX"
   fill="none"
   width="30"
   height="30" />
</g>
<path
   style="fill:#ffffff"
   inkscape:connector-curvature="0"
   id="path13"
   d="M 15.229,5.705 C 11.212,5.614 0.939,6.697 1.001,11.098 c 0,0 -0.062,1.929 2.924,2.848 2.665,0.819 5.395,1.673 2.696,3.941 -1.952,1.641 -1.726,3.52 0.953,5.044 2.661,1.241 5.998,1.369 8.376,1.369 C 23.176,24.3 29,20.283 29,15.036 29,9.791 25.153,5.93 15.229,5.705 z M 7.546,10.53 C 7.382,9.531 8.337,8.544 9.677,8.326 c 1.339,-0.219 2.559,0.414 2.721,1.411 0.164,0.997 -0.789,1.984 -2.13,2.203 C 8.927,12.158 7.71,11.527 7.546,10.53 z m 2.798,11.66 c -1.198,0 -2.17,-0.973 -2.17,-2.171 0,-1.199 0.973,-2.17 2.17,-2.17 1.198,0 2.171,0.972 2.171,2.17 0,1.198 -0.973,2.171 -2.171,2.171 z m 6.674,-10.673 c -1.356,-0.092 -2.397,-0.986 -2.327,-1.994 0.068,-1.008 1.223,-1.753 2.576,-1.66 1.353,0.093 2.396,0.985 2.326,1.995 -0.067,1.009 -1.22,1.751 -2.575,1.659 z m 8.993,1.539 c -0.441,0.911 -1.787,1.167 -3.01,0.574 -1.221,-0.591 -1.854,-1.81 -1.412,-2.719 0.441,-0.91 1.789,-1.169 3.01,-0.574 1.222,0.592 1.853,1.81 1.412,2.719 z" />
</svg>