<?xml version="1.0" encoding="UTF-8"?>
<!DOCTYPE svg PUBLIC "-//W3C//DTD SVG 1.1 Tiny//EN" "http://www.w3.org/Graphics/SVG/1.1/DTD/svg11-tiny.dtd">
<svg baseProfile="tiny" height="42px" version="1.1" viewBox="0 0 84 42" width="84px" x="0px" xmlns="http://www.w3.org/2000/svg" xmlns:xlink="http://www.w3.org/1999/xlink" y="0px">
<linearGradient gradientTransform="matrix(1 0 0 -1 -76 -84)" gradientUnits="userSpaceOnUse" id="SVGID_1_" x1="118" x2="118" y1="-84.082" y2="-125.4807">
<stop offset="0" style="stop-color:#64645F"/>
<stop offset="0.0171" style="stop-color:#63635E"/>
<stop offset="0.3689" style="stop-color:#4C4C47"/>
<stop offset="0.7034" style="stop-color:#3F3F3A"/>
<stop offset="1" style="stop-color:#3A3A35"/>
</linearGradient>
<path d="M84,20C84,5.047,78.953,0,64,0H20C5.047,0,0,5.047,0,20v2c0,14.953,5.047,20,20,20h44  c14.953,0,20-5.047,20-20V20z" fill="url(#SVGID_1_)"/>
<linearGradient gradientTransform="matrix(1 0 0 -1 -76 -84)" gradientUnits="userSpaceOnUse" id="SVGID_2_" x1="118" x2="118" y1="-84.5" y2="-125.8042">
<stop offset="0" style="stop-color:#FFFFFF"/>
<stop offset="1" style="stop-color:#000000"/>
</linearGradient>
<path d="M64,0H20C5.047,0,0,5.047,0,20v2c0,14.953,5.047,20,20,20h44  c14.953,0,20-5.047,20-20v-2C84,5.047,78.953,0,64,0z M83,22c0,14.383-4.617,19-19,19H20C5.617,41,1,36.383,1,22v-2  C1,5.617,5.617,1,20,1h44c14.383,0,19,4.617,19,19V22z" fill="url(#SVGID_2_)" fill-opacity="0.1"/>
</svg>
