<?xml version="1.0" encoding="UTF-8" standalone="no"?>
<svg
   xmlns:dc="http://purl.org/dc/elements/1.1/"
   xmlns:cc="http://creativecommons.org/ns#"
   xmlns:rdf="http://www.w3.org/1999/02/22-rdf-syntax-ns#"
   xmlns:svg="http://www.w3.org/2000/svg"
   xmlns="http://www.w3.org/2000/svg"
   id="SVGID_1_"
   y="0px"
   x="0px"
   width="336px"
   viewBox="0 0 336 42"
   version="1.0"
   height="42px">
 
  <defs
     id="defs16" />
  <path
     id="path2"
     fill="#1080DD"
     d="M316,0H20C5.047,0,0,5.047,0,20v2c0,14.953,5.047,20,20,20h296c14.953,0,20-5.047,20-20v-2  C336,5.047,330.953,0,316,0z" />
  <path
     fill="#4e4e49f5"
     style="fill:#4e4e49;fill-opacity:0.96078432"
     id="path4"
     d="M20,40C6.206,40,2,35.794,2,22v-2C2,6.206,6.206,2,20,2h296c13.794,0,18,4.206,18,18v2  c0,13.795-4.206,18-18,18H20z" />
  <path
     id="path6"
     stroke-opacity="0.07"
     fill-opacity="0.07"
     d="M316,2H20C6.206,2,2,6.206,2,20v2C2,8.206,6.206,4,20,4h296c13.794,0,18,4.206,18,18v-2  C334,6.206,329.794,2,316,2z" />
  <path
     id="path8"
     stroke-opacity="0.15"
     fill-opacity="0.15"
     d="M316,2H20C6.206,2,2,6.206,2,20v1C2,7.206,6.206,3,20,3h296c13.794,0,18,4.206,18,18v-1  C334,6.206,329.794,2,316,2z" />
  <rect
     id="rect10"
     width="336"
     height="42"
     fill="none" />
</svg>
