<?xml version="1.0" encoding="UTF-8" standalone="no"?>
<svg id="svg2" xmlns:rdf="http://www.w3.org/1999/02/22-rdf-syntax-ns#" xmlns="http://www.w3.org/2000/svg" height="178px" viewBox="0 0 344 178" width="344px" version="1.1" y="0px" x="0px" xmlns:cc="http://creativecommons.org/ns#" xmlns:dc="http://purl.org/dc/elements/1.1/">
 <metadata id="metadata21">
  <rdf:RDF>
   <cc:Work rdf:about="">
    <dc:format>image/svg+xml</dc:format>
    <dc:type rdf:resource="http://purl.org/dc/dcmitype/StillImage"/>
    <dc:title/>
   </cc:Work>
  </rdf:RDF>
 </metadata>
 <path id="path4" fill-opacity="0.95" fill="#3C3C37" d="M344,172c0,3.3-2.699,6-6,6h-332c-3.299,0-6-2.7-6-6v-166c0-3.3,2.701-6,6-6h332c3.301,0,6,2.7,6,6v166z"/>
 <path id="path6" fill-opacity="0.41596639" fill="#000000" d="M344,172c0,3.3-2.699,6-6,6h-332c-3.299,0-6-2.7-6-6v-166c0-3.3,2.701-6,6-6h332c3.301,0,6,2.7,6,6v166z"/>
 <path id="path8" fill-opacity="0.1" fill="#FFFFFF" d="M338,0h-332c-3.299,0-6,2.7-6,6v1.5c0-3.3,2.701-6,6-6h332c3.301,0,6,2.7,6,6v-1.5c0-3.3-2.7-6-6-6z"/>
 <path id="path10" d="M338,178h-332c-3.299,0-6-2.7-6-6v-1.5c0,3.3,2.701,6,6,6h332c3.301,0,6-2.7,6-6v1.5c0,3.3-2.7,6-6,6z"/>
</svg>
