<?xml version="1.0" encoding="UTF-8" standalone="no"?>
<svg
   xmlns:dc="http://purl.org/dc/elements/1.1/"
   xmlns:cc="http://creativecommons.org/ns#"
   xmlns:rdf="http://www.w3.org/1999/02/22-rdf-syntax-ns#"
   xmlns:svg="http://www.w3.org/2000/svg"
   xmlns="http://www.w3.org/2000/svg"
   xmlns:sodipodi="http://sodipodi.sourceforge.net/DTD/sodipodi-0.dtd"
   xmlns:inkscape="http://www.inkscape.org/namespaces/inkscape"
   height="42px"
   version="1.1"
   viewBox="0 -0.001 336 42"
   width="336px"
   x="0px"
   y="0px"
   id="svg21"
   sodipodi:docname="qtg_fr_textfield_dark_editable.svg"
   inkscape:version="0.92.2 (5c3e80d, 2017-08-06)">
  <metadata
     id="metadata25">
    <rdf:RDF>
      <cc:Work
         rdf:about="">
        <dc:format>image/svg+xml</dc:format>
        <dc:type
           rdf:resource="http://purl.org/dc/dcmitype/StillImage" />
        <dc:title></dc:title>
      </cc:Work>
    </rdf:RDF>
  </metadata>
  <sodipodi:namedview
     pagecolor="#ffffff"
     bordercolor="#666666"
     borderopacity="1"
     objecttolerance="10"
     gridtolerance="10"
     guidetolerance="10"
     inkscape:pageopacity="0"
     inkscape:pageshadow="2"
     inkscape:window-width="1920"
     inkscape:window-height="1001"
     id="namedview23"
     showgrid="false"
     inkscape:zoom="1.0714286"
     inkscape:cx="168"
     inkscape:cy="21"
     inkscape:window-x="-9"
     inkscape:window-y="-9"
     inkscape:window-maximized="1"
     inkscape:current-layer="svg21" />
  <path
     d="M316,1H20C5.617,1,1,5.617,1,20v2c0,14.384,4.617,19,19,19h296c14.383,0,19-4.616,19-19v-2  C335,5.617,330.383,1,316,1z"
     fill="url(#SVGID_1_)"
     id="path2" />
  <path
     d="M20,40C6.206,40,2,35.794,2,22v-2C2,6.206,6.206,2,20,2h296c13.794,0,18,4.206,18,18v2  c0,13.794-4.206,18-18,18H20z"
     fill="#4e4e49f5"
     id="path4"
     style="fill:#4e4e49;fill-opacity:0.96078432" />
  <path
     d="M316,2H20C6.206,2,2,6.206,2,20v2C2,8.206,6.206,4,20,4h296c13.794,0,18,4.206,18,18v-2  C334,6.206,329.794,2,316,2z"
     fill-opacity="0.07"
     stroke-opacity="0.07"
     id="path6" />
  <path
     d="M316,2H20C6.206,2,2,6.206,2,20v1C2,7.206,6.206,3,20,3h296c13.794,0,18,4.206,18,18v-1  C334,6.206,329.794,2,316,2z"
     fill-opacity="0.15"
     stroke-opacity="0.15"
     id="path8" />
  <rect
     fill="none"
     height="42"
     width="336"
     id="rect10" />
  <defs
     id="defs19">
    <linearGradient
       gradientUnits="userSpaceOnUse"
       id="SVGID_1_"
       x1="167.9995"
       x2="167.9995"
       y1="1"
       y2="40.8543">
      <stop
         offset="0"
         style="stop-color:#666666"
         id="stop12" />
      <stop
         offset="0.4557"
         style="stop-color:#9C9C9C"
         id="stop14" />
      <stop
         offset="1"
         style="stop-color:#D9D9D9"
         id="stop16" />
    </linearGradient>
  </defs>
</svg>
