<?xml version="1.0" encoding="UTF-8" standalone="no"?>
<svg id="svg2" xmlns:rdf="http://www.w3.org/1999/02/22-rdf-syntax-ns#" xmlns="http://www.w3.org/2000/svg" height="42px" width="84px" version="1.1" y="0px" x="0px" xmlns:cc="http://creativecommons.org/ns#" xmlns:dc="http://purl.org/dc/elements/1.1/" viewBox="0 0 84 42">
 <metadata id="metadata28">
  <rdf:RDF>
   <cc:Work rdf:about="">
    <dc:format>image/svg+xml</dc:format>
    <dc:type rdf:resource="http://purl.org/dc/dcmitype/StillImage"/>
    <dc:title/>
   </cc:Work>
  </rdf:RDF>
 </metadata>
 <path id="path15" fill-opacity="0.68067226" fill="#000000" d="m84.205,19.912c0-14.953-5.047-20-20-20h-44c-14.953,0-20,5.047-20,20v2c0,14.953,5.047,20,20,20h44c14.953,0,20-5.047,20-20v-2z"/>
 <path id="path22" fill-opacity="0.10084034" fill="#ffffff" d="M64,0h-44c-14.953,0-20,5.047-20,20v2c0,14.953,5.047,20,20,20h44c14.953,0,20-5.047,20-20v-2c0-14.953-5.047-20-20-20zm19,22c0,14.383-4.617,19-19,19h-44c-14.383,0-19-4.617-19-19v-2c0-14.383,4.617-19,19-19h44c14.383,0,19,4.617,19,19v2z"/>
</svg>
