<?xml version="1.0" encoding="UTF-8" standalone="no"?>
<svg
   xmlns:dc="http://purl.org/dc/elements/1.1/"
   xmlns:cc="http://creativecommons.org/ns#"
   xmlns:rdf="http://www.w3.org/1999/02/22-rdf-syntax-ns#"
   xmlns:svg="http://www.w3.org/2000/svg"
   xmlns="http://www.w3.org/2000/svg"
   xmlns:sodipodi="http://sodipodi.sourceforge.net/DTD/sodipodi-0.dtd"
   xmlns:inkscape="http://www.inkscape.org/namespaces/inkscape"
   height="42px"
   version="1.1"
   viewBox="0 0 336 42"
   width="336px"
   x="0px"
   y="0px"
   id="svg8"
   sodipodi:docname="qtg_fr_textfield_dark_uneditable.svg"
   inkscape:version="0.92.2 (5c3e80d, 2017-08-06)">
  <metadata
     id="metadata14">
    <rdf:RDF>
      <cc:Work
         rdf:about="">
        <dc:format>image/svg+xml</dc:format>
        <dc:type
           rdf:resource="http://purl.org/dc/dcmitype/StillImage" />
        <dc:title></dc:title>
      </cc:Work>
    </rdf:RDF>
  </metadata>
  <defs
     id="defs12" />
  <sodipodi:namedview
     pagecolor="#ffffff"
     bordercolor="#666666"
     borderopacity="1"
     objecttolerance="10"
     gridtolerance="10"
     guidetolerance="10"
     inkscape:pageopacity="0"
     inkscape:pageshadow="2"
     inkscape:window-width="1920"
     inkscape:window-height="1001"
     id="namedview10"
     showgrid="false"
     inkscape:zoom="3.0304576"
     inkscape:cx="212.18045"
     inkscape:cy="-10.939251"
     inkscape:window-x="-9"
     inkscape:window-y="-9"
     inkscape:window-maximized="1"
     inkscape:current-layer="svg8" />
  <path
     d="M316,1H20C5.617,1,1,5.617,1,20v2c0,14.384,4.617,19,19,19h296c14.383,0,19-4.616,19-19v-2  C335,5.617,330.383,1,316,1z"
     fill="#CCCCCC"
     id="path2" />
  <path
     d="M20,40C6.206,40,2,35.794,2,22v-2C2,6.206,6.206,2,20,2h296c13.794,0,18,4.206,18,18v2  c0,13.795-4.206,18-18,18H20z"
     fill="#4e4e49f5"
     id="path4"
     style="fill:#4e4e49;fill-opacity:0.96078432" />
  <rect
     fill="none"
     height="42"
     width="336"
     id="rect6" />
</svg>
