<?xml version="1.0" encoding="UTF-8" standalone="no"?>
<!-- Generator: Adobe Illustrator 15.0.0, SVG Export Plug-In . SVG Version: 6.00 Build 0)  -->

<svg
   xmlns:dc="http://purl.org/dc/elements/1.1/"
   xmlns:cc="http://creativecommons.org/ns#"
   xmlns:rdf="http://www.w3.org/1999/02/22-rdf-syntax-ns#"
   xmlns:svg="http://www.w3.org/2000/svg"
   xmlns="http://www.w3.org/2000/svg"
   xmlns:sodipodi="http://sodipodi.sourceforge.net/DTD/sodipodi-0.dtd"
   xmlns:inkscape="http://www.inkscape.org/namespaces/inkscape"
   version="1.1"
   x="0px"
   y="0px"
   width="30px"
   height="30px"
   viewBox="0 0 30 30"
   enable-background="new 0 0 30 30"
   xml:space="preserve"
   id="svg13"
   sodipodi:docname="refresh_flat.svg"
   inkscape:version="0.92.2 (5c3e80d, 2017-08-06)"><metadata
     id="metadata19"><rdf:RDF><cc:Work
         rdf:about=""><dc:format>image/svg+xml</dc:format><dc:type
           rdf:resource="http://purl.org/dc/dcmitype/StillImage" /><dc:title></dc:title></cc:Work></rdf:RDF></metadata><defs
     id="defs17" /><sodipodi:namedview
     pagecolor="#ffffff"
     bordercolor="#666666"
     borderopacity="1"
     objecttolerance="10"
     gridtolerance="10"
     guidetolerance="10"
     inkscape:pageopacity="0"
     inkscape:pageshadow="2"
     inkscape:window-width="1920"
     inkscape:window-height="1001"
     id="namedview15"
     showgrid="false"
     inkscape:zoom="22.250293"
     inkscape:cx="14.350723"
     inkscape:cy="14.728525"
     inkscape:window-x="-9"
     inkscape:window-y="-9"
     inkscape:window-maximized="1"
     inkscape:current-layer="svg13" /><g
     id="DO_NOT_EDIT_-_BOUNDING_BOX"><rect
       id="BOUNDING_BOX"
       fill="none"
       width="30"
       height="30" /></g><path
     style="fill:#ffffff"
     inkscape:connector-curvature="0"
     id="path10"
     d="M 11.169,7.996 C 12.308,7.367 13.609,7 15,7 c 4.41,0 8,3.588 8,8 h 4 C 27,8.373 21.627,3 15,3 12.845,3 10.828,3.576 9.082,4.572 L 7.514,2 1.987,11 H 13 Z M 16.986,19 18.83,22.004 C 17.691,22.631 16.391,23 15,23 10.589,23 7,19.41 7,15 H 3 c 0,6.627 5.373,12 12,12 2.16,0 4.18,-0.58 5.93,-1.58 L 22.514,28 28,19 Z" /></svg>