<?xml version="1.0" encoding="UTF-8" standalone="no"?>
<!-- Generator: Adobe Illustrator 15.0.0, SVG Export Plug-In . SVG Version: 6.00 Build 0)  -->

<svg
   xmlns:dc="http://purl.org/dc/elements/1.1/"
   xmlns:cc="http://creativecommons.org/ns#"
   xmlns:rdf="http://www.w3.org/1999/02/22-rdf-syntax-ns#"
   xmlns:svg="http://www.w3.org/2000/svg"
   xmlns="http://www.w3.org/2000/svg"
   xmlns:sodipodi="http://sodipodi.sourceforge.net/DTD/sodipodi-0.dtd"
   xmlns:inkscape="http://www.inkscape.org/namespaces/inkscape"
   version="1.1"
   x="0px"
   y="0px"
   width="30px"
   height="30px"
   viewBox="0 0 30 30"
   enable-background="new 0 0 30 30"
   xml:space="preserve"
   id="svg2"
   inkscape:version="0.48.4 r9939"
   sodipodi:docname="rss_feed_flat.svg"><metadata
   id="metadata23"><rdf:RDF><cc:Work
       rdf:about=""><dc:format>image/svg+xml</dc:format><dc:type
         rdf:resource="http://purl.org/dc/dcmitype/StillImage" /><dc:title></dc:title></cc:Work></rdf:RDF></metadata><defs
   id="defs21">
	
</defs><sodipodi:namedview
   pagecolor="#ffffff"
   bordercolor="#666666"
   borderopacity="1"
   objecttolerance="10"
   gridtolerance="10"
   guidetolerance="10"
   inkscape:pageopacity="0"
   inkscape:pageshadow="2"
   inkscape:window-width="1920"
   inkscape:window-height="999"
   id="namedview19"
   showgrid="false"
   inkscape:zoom="15.733333"
   inkscape:cx="15.292831"
   inkscape:cy="10.70416"
   inkscape:window-x="-9"
   inkscape:window-y="-9"
   inkscape:window-maximized="1"
   inkscape:current-layer="g7" />
<g
   id="DO_NOT_EDIT_-_BOUNDING_BOX">
	<rect
   id="BOUNDING_BOX"
   fill="none"
   width="30"
   height="30" />
</g>
<g
   id="g7">
		
		
		
		<path
   style="fill:#ffffff"
   inkscape:connector-curvature="0"
   id="path15"
   d="M 25,3 5,3 C 3.896,3 3,3.896 3,5 l 0,20 c 0,1.105 0.896,2 2,2 l 20,0 c 1.104,0 2,-0.895 2,-2 L 27,5 C 27,3.896 26.104,3 25,3 z M 8,25 c -1.655,0 -3,-1.344 -3,-3 0,-1.656 1.345,-3 3,-3 1.655,0 3,1.344 3,3 0,1.656 -1.345,3 -3,3 z M 18.334,23.666 C 18.334,24.402 17.736,25 17,25 l -1.334,0 c -0.736,0 -1.332,-0.598 -1.332,-1.334 l 0,-0.771 -0.021,0 c 0,-3.869 -3.338,-7.229 -7.207,-7.229 l -0.772,0 C 5.596,15.666 5,15.07 5,14.334 L 5,13 c 0,-0.736 0.596,-1.334 1.334,-1.334 l 1.332,0 c 0.066,0 0.125,0.029 0.188,0.039 5.594,0.371 10.07,4.848 10.441,10.439 0.01,0.064 0.039,0.123 0.039,0.189 l 0,1.333 z m 6.666,0 C 25,24.402 24.404,25 23.666,25 l -1.332,0 C 21.596,25 21,24.402 21,23.666 l 0,-0.734 C 21,15.327 14.674,9.022 7.068,9.022 L 7.068,9 6.334,9 C 5.596,9 5,8.402 5,7.666 L 5,6.334 C 5,5.598 5.596,5 6.334,5 l 1.332,0 c 0.072,0 0.133,0.029 0.201,0.041 9.248,0.41 16.682,7.842 17.092,17.092 0.012,0.068 0.041,0.129 0.041,0.201 l 0,1.332 z" />
		<rect
   style="fill:none"
   y="0"
   x="0"
   id="rect17"
   height="30"
   width="30" />
	</g>
</svg>