<?xml version="1.0" encoding="UTF-8" standalone="no"?>
<!-- Generator: Adobe Illustrator 15.0.0, SVG Export Plug-In . SVG Version: 6.00 Build 0)  -->

<svg
   xmlns:dc="http://purl.org/dc/elements/1.1/"
   xmlns:cc="http://creativecommons.org/ns#"
   xmlns:rdf="http://www.w3.org/1999/02/22-rdf-syntax-ns#"
   xmlns:svg="http://www.w3.org/2000/svg"
   xmlns="http://www.w3.org/2000/svg"
   xmlns:sodipodi="http://sodipodi.sourceforge.net/DTD/sodipodi-0.dtd"
   xmlns:inkscape="http://www.inkscape.org/namespaces/inkscape"
   version="1.1"
   x="0px"
   y="0px"
   width="30px"
   height="30px"
   viewBox="0 0 30 30"
   enable-background="new 0 0 30 30"
   xml:space="preserve"
   id="svg2"
   inkscape:version="0.48.4 r9939"
   sodipodi:docname="search.svg"><metadata
   id="metadata25"><rdf:RDF><cc:Work
       rdf:about=""><dc:format>image/svg+xml</dc:format><dc:type
         rdf:resource="http://purl.org/dc/dcmitype/StillImage" /><dc:title></dc:title></cc:Work></rdf:RDF></metadata><defs
   id="defs23">
	
	
	
	
	
</defs><sodipodi:namedview
   pagecolor="#ffffff"
   bordercolor="#666666"
   borderopacity="1"
   objecttolerance="10"
   gridtolerance="10"
   guidetolerance="10"
   inkscape:pageopacity="0"
   inkscape:pageshadow="2"
   inkscape:window-width="1920"
   inkscape:window-height="999"
   id="namedview21"
   showgrid="false"
   inkscape:zoom="22.250293"
   inkscape:cx="17.262361"
   inkscape:cy="12.465526"
   inkscape:window-x="-9"
   inkscape:window-y="-9"
   inkscape:window-maximized="1"
   inkscape:current-layer="svg2" />
<g
   id="DO_NOT_EDIT_-_BOUNDING_BOX">
	<rect
   id="BOUNDING_BOX"
   fill="none"
   width="30"
   height="30" />
</g>
<rect
   style="fill:none"
   y="0"
   x="0"
   id="rect15"
   height="30"
   width="30" /><path
   style="fill:#ffffff"
   inkscape:connector-curvature="0"
   id="path19"
   d="m 27.268,23.73225 -4.934,-4.934 c 1.051,-1.685 1.666,-3.667 1.666,-5.798 0,-6.075 -4.924,-11 -11,-11 -6.074,0 -11,4.925 -11,11 0,6.074 4.926,11 11,11 2.131,0 4.113,-0.617 5.799,-1.666 l 4.934,4.934 c 0.979,0.977 2.561,0.977 3.535,0 0.976,-0.977 0.976,-2.559 0,-3.536 z M 13,20.50025 c -4.137,0 -7.5,-3.363 -7.5,-7.5 0,-4.137 3.363,-7.5 7.5,-7.5 4.137,0 7.5,3.363 7.5,7.5 0,4.137 -3.363,7.5 -7.5,7.5 z" />
</svg>