<?xml version="1.0" encoding="utf-8"?>
<!-- Generator: Adobe Illustrator 17.0.0, SVG Export Plug-In . SVG Version: 6.00 Build 0)  -->
<!DOCTYPE svg PUBLIC "-//W3C//DTD SVG 1.1//EN" "http://www.w3.org/Graphics/SVG/1.1/DTD/svg11.dtd">
<svg version="1.1" id="Layer_2" xmlns="http://www.w3.org/2000/svg" xmlns:xlink="http://www.w3.org/1999/xlink" x="0px" y="0px"
	 width="60px" height="60px" viewBox="0 0 60 60" enable-background="new 0 0 60 60" xml:space="preserve">
<path fill="#FFFFFF" d="M7.106,60C3.188,60,0,56.428,0,52.038V7.962C0,3.572,3.188,0,7.106,0h34.706
	c3.532,0,6.558,2.955,7.039,6.874l0.036,0.292l-4.265,4.277V7.962c0-1.736-1.26-3.148-2.81-3.148H7.106
	c-1.549,0-2.81,1.412-2.81,3.148v44.076c0,1.736,1.26,3.148,2.81,3.148h34.706c1.549,0,2.81-1.412,2.81-3.148v-5.229l4.297-4.309
	v9.539c0,4.39-3.188,7.962-7.106,7.962H7.106z M35.645,40.351c-0.45,0-0.901-0.171-1.27-0.515L23.492,29.675
	c-0.841-0.786-0.955-2.187-0.254-3.129c0.701-0.943,1.952-1.07,2.793-0.284l9.568,8.932l21.095-21.156
	c0.816-0.818,2.07-0.741,2.801,0.174c0.73,0.914,0.661,2.319-0.155,3.137L36.968,39.784C36.592,40.161,36.119,40.351,35.645,40.351z
	 M36.968,52.745L59.34,30.31c0.816-0.818,0.885-2.223,0.155-3.137c-0.731-0.914-1.984-0.992-2.801-0.174L35.599,48.154l-9.568-8.932
	c-0.841-0.785-2.092-0.658-2.793,0.284c-0.701,0.943-0.587,2.344,0.254,3.129l10.883,10.161c0.368,0.344,0.819,0.515,1.27,0.515
	C36.119,53.312,36.592,53.122,36.968,52.745z M36.968,26.823L59.34,4.388c0.816-0.818,0.885-2.223,0.155-3.137
	c-0.731-0.914-1.984-0.992-2.801-0.174L35.599,22.232L26.031,13.3c-0.841-0.785-2.092-0.658-2.793,0.284
	c-0.701,0.943-0.587,2.344,0.254,3.129l10.883,10.161c0.368,0.344,0.819,0.515,1.27,0.515C36.119,27.39,36.592,27.2,36.968,26.823z"
	/>
</svg>
