<?xml version="1.0" encoding="UTF-8" standalone="no"?>
<!-- Generator: Adobe Illustrator 15.0.0, SVG Export Plug-In . SVG Version: 6.00 Build 0)  -->

<svg
   xmlns:dc="http://purl.org/dc/elements/1.1/"
   xmlns:cc="http://creativecommons.org/ns#"
   xmlns:rdf="http://www.w3.org/1999/02/22-rdf-syntax-ns#"
   xmlns:svg="http://www.w3.org/2000/svg"
   xmlns="http://www.w3.org/2000/svg"
   xmlns:sodipodi="http://sodipodi.sourceforge.net/DTD/sodipodi-0.dtd"
   xmlns:inkscape="http://www.inkscape.org/namespaces/inkscape"
   version="1.1"
   x="0px"
   y="0px"
   width="30px"
   height="30px"
   viewBox="0 0 30 30"
   enable-background="new 0 0 30 30"
   xml:space="preserve"
   id="svg2"
   inkscape:version="0.48.4 r9939"
   sodipodi:docname="settings.svg"><metadata
   id="metadata19"><rdf:RDF><cc:Work
       rdf:about=""><dc:format>image/svg+xml</dc:format><dc:type
         rdf:resource="http://purl.org/dc/dcmitype/StillImage" /><dc:title></dc:title></cc:Work></rdf:RDF></metadata><defs
   id="defs17">
	
	
	
	
</defs><sodipodi:namedview
   pagecolor="#ffffff"
   bordercolor="#666666"
   borderopacity="1"
   objecttolerance="10"
   gridtolerance="10"
   guidetolerance="10"
   inkscape:pageopacity="0"
   inkscape:pageshadow="2"
   inkscape:window-width="1920"
   inkscape:window-height="999"
   id="namedview15"
   showgrid="false"
   inkscape:zoom="15.733333"
   inkscape:cx="7.5"
   inkscape:cy="16.010882"
   inkscape:window-x="-9"
   inkscape:window-y="-9"
   inkscape:window-maximized="1"
   inkscape:current-layer="svg2" />
<g
   id="DO_NOT_EDIT_-_BOUNDING_BOX">
	<rect
   id="BOUNDING_BOX"
   fill="none"
   width="30"
   height="30" />
</g>
<path
   style="fill:#ffffff"
   inkscape:connector-curvature="0"
   id="path13"
   d="m 24.937816,16.732 c 0.099,-0.564 0.159999,-1.14 0.159999,-1.732 0,-0.59 -0.062,-1.166 -0.158999,-1.729 l 2.700978,-2.225 c 0.364997,-0.299 0.469997,-0.879 0.233998,-1.289 L 25.977808,6.472 C 25.743809,6.063 25.188814,5.865 24.745818,6.03 L 21.476844,7.256 C 20.591851,6.515 19.574859,5.931 18.469868,5.527 L 17.894872,2.076 c -0.078,-0.465 -0.527995,-0.847 -0.998991,-0.847 h -3.79197 c -0.472996,0 -0.920992,0.382 -0.999992,0.847 L 11.528923,5.527 C 10.424932,5.931 9.4079408,6.515 8.523948,7.256 L 5.2539739,6.031 C 4.8119774,5.866 4.2569819,6.064 4.0209838,6.473 L 2.1259989,9.758 C 1.8900008,10.167 1.995,10.746 2.3589971,11.046 l 2.7019783,2.224 c -0.098999,0.564 -0.1599987,1.14 -0.1599987,1.731 0,0.592 0.061,1.168 0.1599987,1.732 L 2.3599971,18.955 C 1.996,19.256 1.8910008,19.836 2.126999,20.246 l 1.8949848,3.281 c 0.2369981,0.41 0.7919936,0.607 1.2329901,0.443 l 3.2679738,-1.225 c 0.8849931,0.74 1.9009853,1.322 3.0049763,1.727 l 0.574995,3.451 c 0.078,0.467 0.528996,0.848 0.999992,0.848 h 3.79197 c 0.471996,0 0.920992,-0.381 0.998992,-0.848 l 0.574995,-3.451 c 1.103991,-0.404 2.120983,-0.986 3.005976,-1.729 l 3.269973,1.227 c 0.441997,0.164 0.996993,-0.035 1.23099,-0.443 l 1.895985,-3.283 c 0.235999,-0.41 0.130999,-0.99 -0.232998,-1.289 l -2.700978,-2.223 z m -9.93892,3.416 c -2.839978,0 -5.1499591,-2.309 -5.1499591,-5.148 0,-2.839 2.3099811,-5.15 5.1499591,-5.15 2.838977,0 5.148959,2.311 5.148959,5.15 0,2.84 -2.309982,5.148 -5.148959,5.148 z" />
</svg>