<?xml version="1.0" encoding="UTF-8" standalone="no"?>
<!-- Generator: Adobe Illustrator 15.0.0, SVG Export Plug-In . SVG Version: 6.00 Build 0)  -->

<svg
   xmlns:dc="http://purl.org/dc/elements/1.1/"
   xmlns:cc="http://creativecommons.org/ns#"
   xmlns:rdf="http://www.w3.org/1999/02/22-rdf-syntax-ns#"
   xmlns:svg="http://www.w3.org/2000/svg"
   xmlns="http://www.w3.org/2000/svg"
   xmlns:sodipodi="http://sodipodi.sourceforge.net/DTD/sodipodi-0.dtd"
   xmlns:inkscape="http://www.inkscape.org/namespaces/inkscape"
   version="1.1"
   x="0px"
   y="0px"
   width="30px"
   height="30px"
   viewBox="0 0 30 30"
   enable-background="new 0 0 30 30"
   xml:space="preserve"
   id="svg2"
   inkscape:version="0.48.4 r9939"
   sodipodi:docname="share.svg"><metadata
   id="metadata23"><rdf:RDF><cc:Work
       rdf:about=""><dc:format>image/svg+xml</dc:format><dc:type
         rdf:resource="http://purl.org/dc/dcmitype/StillImage" /><dc:title></dc:title></cc:Work></rdf:RDF></metadata><defs
   id="defs21">
	

		
		
		
		
		
	</defs><sodipodi:namedview
   pagecolor="#ffffff"
   bordercolor="#666666"
   borderopacity="1"
   objecttolerance="10"
   gridtolerance="10"
   guidetolerance="10"
   inkscape:pageopacity="0"
   inkscape:pageshadow="2"
   inkscape:window-width="1920"
   inkscape:window-height="999"
   id="namedview19"
   showgrid="false"
   inkscape:zoom="15.733333"
   inkscape:cx="10.211695"
   inkscape:cy="13.073602"
   inkscape:window-x="-9"
   inkscape:window-y="-9"
   inkscape:window-maximized="1"
   inkscape:current-layer="svg2" />
<g
   id="DO_NOT_EDIT_-_BOUNDING_BOX">
	<rect
   id="BOUNDING_BOX"
   fill="none"
   width="30"
   height="30" />
</g>
<rect
   width="30"
   height="30"
   id="rect11"
   x="0"
   y="0"
   style="opacity:0.31000001;fill:none" /><path
   d="m 22.967,18.223 c -1.189,0 -2.299,0.443 -3.162,1.254 l -5.338,-2.924 c 0.131,-0.504 0.197,-1.023 0.197,-1.547 0,-0.563 -0.076,-1.115 -0.227,-1.654 l 5.314,-2.914 c 0.871,0.855 2.037,1.34 3.254,1.34 2.57,0 4.662,-2.094 4.662,-4.666 0,-2.57 -2.092,-4.662 -4.662,-4.662 -2.572,0 -4.664,2.092 -4.664,4.662 0,0.107 0.004,0.215 0.012,0.324 l -5.639,3.072 C 11.578,9.443 10.059,8.84 8.496,8.84 c -3.4,0 -6.166,2.766 -6.166,6.166 0,3.4 2.766,6.168 6.166,6.168 1.609,0 3.158,-0.635 4.303,-1.75 l 5.529,3.018 c -0.018,0.15 -0.025,0.297 -0.025,0.443 0,2.572 2.094,4.664 4.664,4.664 2.572,0 4.664,-2.092 4.664,-4.664 0,-2.571 -2.092,-4.662 -4.664,-4.662 z"
   id="path17"
   inkscape:connector-curvature="0"
   style="fill:#ffffff" />
</svg>