<?xml version="1.0" encoding="UTF-8" standalone="no"?>
<!-- Generator: Adobe Illustrator 15.0.0, SVG Export Plug-In . SVG Version: 6.00 Build 0)  -->

<svg
   xmlns:dc="http://purl.org/dc/elements/1.1/"
   xmlns:cc="http://creativecommons.org/ns#"
   xmlns:rdf="http://www.w3.org/1999/02/22-rdf-syntax-ns#"
   xmlns:svg="http://www.w3.org/2000/svg"
   xmlns="http://www.w3.org/2000/svg"
   xmlns:sodipodi="http://sodipodi.sourceforge.net/DTD/sodipodi-0.dtd"
   xmlns:inkscape="http://www.inkscape.org/namespaces/inkscape"
   version="1.1"
   x="0px"
   y="0px"
   width="30px"
   height="30px"
   viewBox="0 0 30 30"
   enable-background="new 0 0 30 30"
   xml:space="preserve"
   id="svg2"
   inkscape:version="0.48.4 r9939"
   sodipodi:docname="switch_windows.svg"><metadata
   id="metadata19"><rdf:RDF><cc:Work
       rdf:about=""><dc:format>image/svg+xml</dc:format><dc:type
         rdf:resource="http://purl.org/dc/dcmitype/StillImage" /><dc:title></dc:title></cc:Work></rdf:RDF></metadata><defs
   id="defs17">
	
	
	
	
</defs><sodipodi:namedview
   pagecolor="#ffffff"
   bordercolor="#666666"
   borderopacity="1"
   objecttolerance="10"
   gridtolerance="10"
   guidetolerance="10"
   inkscape:pageopacity="0"
   inkscape:pageshadow="2"
   inkscape:window-width="1920"
   inkscape:window-height="999"
   id="namedview15"
   showgrid="false"
   inkscape:zoom="15.733333"
   inkscape:cx="23.059336"
   inkscape:cy="13.212456"
   inkscape:window-x="-9"
   inkscape:window-y="-9"
   inkscape:window-maximized="1"
   inkscape:current-layer="svg2" />
<g
   id="DO_NOT_EDIT_-_BOUNDING_BOX">
	<rect
   id="BOUNDING_BOX"
   fill="none"
   width="30"
   height="30" />
</g>
<path
   style="fill:#ffffff"
   inkscape:connector-curvature="0"
   id="path13"
   d="m 13.8,4 c 0,-0.422 0.222,-0.813 0.583,-1.029 L 16.002,2 H 4 C 3.447,2 3,2.447 3,3 V 5 H 14.347 C 14.008,4.779 13.8,4.406 13.8,4 z M 15,4 20,7 V 5 c 2.757,0 5,2.243 5,5 h 2 C 27,6.141 23.859,3 20,3 V 1 L 15,4 z M 6.2,20 c 0,0.348 0.058,0.68 0.145,1 H 10 V 11 c 0,-1.104 0.896,-2 2,-2 h 7 V 7.799 L 16.002,6 H 3 v 12.8 h 2 c 0.662,0 1.2,0.538 1.2,1.2 z M 23.8,10 H 12 c -0.553,0 -1,0.447 -1,1 v 2 h 16 v -1.8 h -2 c -0.662,0 -1.2,-0.538 -1.2,-1.2 z M 15,26 10,23 v 2 C 7.243,25 5,22.757 5,20 H 3 c 0,3.859 3.141,7 7,7 v 2 l 5,-3 z m -4,-3.799 4.617,2.77 c 0.362,0.217 0.583,0.607 0.583,1.029 0,0.422 -0.222,0.813 -0.583,1.029 L 12.332,29 H 26 c 0.553,0 1,-0.447 1,-1 V 14 H 11 v 8.201 z" />
</svg>