<?xml version="1.0" encoding="UTF-8" standalone="no"?>
<!-- Generator: Adobe Illustrator 15.0.0, SVG Export Plug-In . SVG Version: 6.00 Build 0)  -->
<svg id="svg2" xmlns:rdf="http://www.w3.org/1999/02/22-rdf-syntax-ns#" xmlns="http://www.w3.org/2000/svg" enable-background="new 0 0 30 30" xml:space="preserve" height="30px" width="30px" version="1.1" y="0px" x="0px" xmlns:cc="http://creativecommons.org/ns#" xmlns:dc="http://purl.org/dc/elements/1.1/" viewBox="0 0 30 30"><metadata id="metadata21"><rdf:RDF><cc:Work rdf:about=""><dc:format>image/svg+xml</dc:format><dc:type rdf:resource="http://purl.org/dc/dcmitype/StillImage"/><dc:title/></cc:Work></rdf:RDF></metadata><defs id="defs19">
</defs>
<g id="DO_NOT_EDIT_-_BOUNDING_BOX">
	<rect id="BOUNDING_BOX" width="30" fill="none" height="30"/>
</g>
<path id="path13" d="m15,11.999c-1.656,0-3,1.344-3,3,0,1.657,1.344,3.001,3,3.001,1.657,0,3-1.344,3-3.001,0-1.656-1.343-3-3-3zm-10,0c-1.656,0-3,1.344-3,3,0,1.657,1.344,3.001,3,3.001,1.657,0,3-1.344,3-3.001,0-1.656-1.343-3-3-3zm20,0c-1.656,0-3,1.344-3,3,0,1.657,1.344,3.001,3,3.001,1.657,0,3-1.344,3-3.001,0-1.656-1.343-3-3-3z" fill="#FFF"/><rect id="rect15" height="30.001" width="30" y="-0.001" x="0" fill="none"/>
</svg>
