<?xml version="1.0" encoding="UTF-8" standalone="no"?>
<svg
   xmlns:dc="http://purl.org/dc/elements/1.1/"
   xmlns:cc="http://creativecommons.org/ns#"
   xmlns:rdf="http://www.w3.org/1999/02/22-rdf-syntax-ns#"
   xmlns:svg="http://www.w3.org/2000/svg"
   xmlns="http://www.w3.org/2000/svg"
   xmlns:sodipodi="http://sodipodi.sourceforge.net/DTD/sodipodi-0.dtd"
   xmlns:inkscape="http://www.inkscape.org/namespaces/inkscape"
   width="96px"
   x="0px"
   version="1.1"
   y="0px"
   height="96px"
   viewBox="0 0 96 96"
   xml:space="preserve"
   id="svg2"
   inkscape:version="0.48.4 r9939"
   sodipodi:docname="twitter.svg"><metadata
   id="metadata29"><rdf:RDF><cc:Work
       rdf:about=""><dc:format>image/svg+xml</dc:format><dc:type
         rdf:resource="http://purl.org/dc/dcmitype/StillImage" /></cc:Work></rdf:RDF></metadata><defs
   id="defs27" /><sodipodi:namedview
   pagecolor="#ffffff"
   bordercolor="#666666"
   borderopacity="1"
   objecttolerance="10"
   gridtolerance="10"
   guidetolerance="10"
   inkscape:pageopacity="0"
   inkscape:pageshadow="2"
   inkscape:window-width="1920"
   inkscape:window-height="999"
   id="namedview25"
   showgrid="false"
   inkscape:zoom="6.9532167"
   inkscape:cx="82.737501"
   inkscape:cy="38.416304"
   inkscape:window-x="-9"
   inkscape:window-y="-9"
   inkscape:window-maximized="1"
   inkscape:current-layer="svg2" />
 <rect
   width="96"
   fill="none"
   height="96"
   id="BOUNDING_BOX_1_" />
 
 <path
   id="BLUE_4_3_"
   d="m 8,47.989 c 0,29.633 10.365,40 40,40 29.637,0 40,-10.367 40,-40 C 88,19.004 78.074,8.459 49.909,8.01 H 46.092 C 17.928,8.459 8,19.004 8,47.989 z"
   inkscape:connector-curvature="0"
   style="fill:#2daae1" />
 <linearGradient
   id="HIGHLIGHT_BLU4_2_"
   y1="8.2559"
   x1="47.9995"
   y2="87.5043"
   gradientUnits="userSpaceOnUse"
   x2="47.9995">
  <stop
   offset="0.0364"
   style="stop-color:#FFFFFF"
   id="stop8" />
  <stop
   offset="0.129"
   style="stop-color:#F5F7FA"
   id="stop10" />
  <stop
   offset="0.2858"
   style="stop-color:#DBE1ED"
   id="stop12" />
  <stop
   offset="0.4876"
   style="stop-color:#AFBDD7"
   id="stop14" />
  <stop
   offset="0.7265"
   style="stop-color:#738CB8"
   id="stop16" />
  <stop
   offset="0.9942"
   style="stop-color:#284D92"
   id="stop18" />
  <stop
   offset="1"
   style="stop-color:#264C91"
   id="stop20" />
 </linearGradient>
 
 <path
   d="M72.528,32.785c-1.805,0.801-3.744,1.342-5.779,1.585c2.078-1.245,3.674-3.218,4.426-5.568
	c-1.945,1.154-4.1,1.991-6.393,2.442c-1.836-1.956-4.451-3.178-7.346-3.178c-5.559,0-10.065,4.506-10.065,10.064
	c0,0.789,0.089,1.557,0.261,2.294c-8.364-0.42-15.781-4.427-20.745-10.517c-0.866,1.486-1.362,3.216-1.362,5.06
	c0,3.492,1.776,6.573,4.478,8.378c-1.65-0.053-3.202-0.505-4.56-1.259c-0.001,0.042-0.001,0.084-0.001,0.126
	c0,4.877,3.47,8.945,8.074,9.869c-0.845,0.23-1.733,0.354-2.651,0.354c-0.648,0-1.279-0.064-1.894-0.182
	c1.28,3.998,4.997,6.91,9.401,6.99c-3.444,2.699-7.784,4.309-12.5,4.309c-0.812,0-1.613-0.047-2.4-0.141
	c4.454,2.855,9.744,4.521,15.428,4.521c18.514,0,28.637-15.336,28.637-28.636c0-0.437-0.01-0.87-0.029-1.303
	C69.474,36.577,71.181,34.804,72.528,32.785L72.528,32.785z"
   id="path23"
   fill="#FFFFFF" />
</svg>