<?xml version="1.0" encoding="UTF-8" standalone="no"?>
<!-- Generator: Adobe Illustrator 15.0.0, SVG Export Plug-In . SVG Version: 6.00 Build 0)  -->

<svg
   xmlns:dc="http://purl.org/dc/elements/1.1/"
   xmlns:cc="http://creativecommons.org/ns#"
   xmlns:rdf="http://www.w3.org/1999/02/22-rdf-syntax-ns#"
   xmlns:svg="http://www.w3.org/2000/svg"
   xmlns="http://www.w3.org/2000/svg"
   xmlns:sodipodi="http://sodipodi.sourceforge.net/DTD/sodipodi-0.dtd"
   xmlns:inkscape="http://www.inkscape.org/namespaces/inkscape"
   version="1.1"
   x="0px"
   y="0px"
   width="30px"
   height="30px"
   viewBox="0 0 30 30"
   enable-background="new 0 0 30 30"
   xml:space="preserve"
   id="svg2"
   inkscape:version="0.48.4 r9939"
   sodipodi:docname="undo.svg"><metadata
   id="metadata23"><rdf:RDF><cc:Work
       rdf:about=""><dc:format>image/svg+xml</dc:format><dc:type
         rdf:resource="http://purl.org/dc/dcmitype/StillImage" /></cc:Work></rdf:RDF></metadata><defs
   id="defs21">
	

		
		
		
		
		
	</defs><sodipodi:namedview
   pagecolor="#ffffff"
   bordercolor="#666666"
   borderopacity="1"
   objecttolerance="10"
   gridtolerance="10"
   guidetolerance="10"
   inkscape:pageopacity="0"
   inkscape:pageshadow="2"
   inkscape:window-width="1920"
   inkscape:window-height="999"
   id="namedview19"
   showgrid="false"
   inkscape:zoom="7.8666667"
   inkscape:cx="15"
   inkscape:cy="15"
   inkscape:window-x="-9"
   inkscape:window-y="-9"
   inkscape:window-maximized="1"
   inkscape:current-layer="svg2" />
<g
   id="DO_NOT_EDIT_-_BOUNDING_BOX">
	<rect
   id="BOUNDING_BOX"
   fill="none"
   width="30"
   height="30" />
</g>
<path
   d="M 24.042,5.973 H 11.958 L 11.956,5.977 C 10.961,5.94 9.951,6.269 9.158,6.984 L 7.263,8.688 4.722,6.148 3.362,11.139 2,16.129 6.991,14.768 11.981,13.407 9.365,10.789 10.337,9.915 h 10e-4 C 11.031,9.313 11.93,8.941 12.917,8.941 L 24.042,8.939 c 0.535,0 0.988,0.454 0.988,0.991 v 10.142 c 0,0.533 -0.453,0.99 -0.988,0.99 H 10.313 c -0.494,0 -0.898,0.404 -0.898,0.898 v 1.168 c 0,0.494 0.404,0.898 0.898,0.898 H 24.042 C 26.219,24.026 28,22.245 28,20.071 V 9.931 C 28,7.754 26.219,5.973 24.042,5.973 z"
   id="path15"
   inkscape:connector-curvature="0"
   style="fill:#ffffff" /><rect
   y="0"
   width="30"
   height="30"
   id="rect17"
   x="0"
   style="fill:none" />
</svg>