<?xml version="1.0" encoding="UTF-8" standalone="no"?>
<!-- Generator: Adobe Illustrator 15.0.0, SVG Export Plug-In . SVG Version: 6.00 Build 0)  -->

<svg
   xmlns:dc="http://purl.org/dc/elements/1.1/"
   xmlns:cc="http://creativecommons.org/ns#"
   xmlns:rdf="http://www.w3.org/1999/02/22-rdf-syntax-ns#"
   xmlns:svg="http://www.w3.org/2000/svg"
   xmlns="http://www.w3.org/2000/svg"
   xmlns:sodipodi="http://sodipodi.sourceforge.net/DTD/sodipodi-0.dtd"
   xmlns:inkscape="http://www.inkscape.org/namespaces/inkscape"
   version="1.1"
   x="0px"
   y="0px"
   width="30px"
   height="30px"
   viewBox="0 0 30 30"
   enable-background="new 0 0 30 30"
   xml:space="preserve"
   id="svg2"
   inkscape:version="0.48.4 r9939"
   sodipodi:docname="unlock_flat.svg"><metadata
   id="metadata23"><rdf:RDF><cc:Work
       rdf:about=""><dc:format>image/svg+xml</dc:format><dc:type
         rdf:resource="http://purl.org/dc/dcmitype/StillImage" /><dc:title></dc:title></cc:Work></rdf:RDF></metadata><defs
   id="defs21">
	
</defs><sodipodi:namedview
   pagecolor="#ffffff"
   bordercolor="#666666"
   borderopacity="1"
   objecttolerance="10"
   gridtolerance="10"
   guidetolerance="10"
   inkscape:pageopacity="0"
   inkscape:pageshadow="2"
   inkscape:window-width="1920"
   inkscape:window-height="999"
   id="namedview19"
   showgrid="false"
   inkscape:zoom="11.125147"
   inkscape:cx="14.781982"
   inkscape:cy="16.415121"
   inkscape:window-x="-9"
   inkscape:window-y="-9"
   inkscape:window-maximized="1"
   inkscape:current-layer="g7" />
<g
   id="DO_NOT_EDIT_-_BOUNDING_BOX">
	<rect
   id="BOUNDING_BOX"
   fill="none"
   width="30"
   height="30" />
</g>
<g
   id="g7">
		
		
		
		<path
   style="fill:#ffffff"
   inkscape:connector-curvature="0"
   id="path15"
   d="M 25,12 15,12 15,9 C 15,7.344 13.656,6 12,6 L 6,6 C 4.342,6 3,7.344 3,9 l 0,3 2,0 0,-3 C 5,8.449 5.447,8 6,8 l 6,0 c 0.551,0 1,0.449 1,1 l 0,3 c -1.104,0 -2,0.896 -2,2 l 0,8 c 0,1.104 0.896,2 2,2 l 12,0 c 1.104,0 2,-0.896 2,-2 l 0,-8 c 0,-1.104 -0.896,-2 -2,-2 z M 20,19.506 20,21 c 0,0.553 -0.447,1 -1,1 -0.553,0 -1,-0.447 -1,-1 l 0,-1.494 c -0.738,-0.369 -1.25,-1.125 -1.25,-2.006 0,-1.242 1.008,-2.25 2.25,-2.25 1.242,0 2.25,1.008 2.25,2.25 0,0.881 -0.512,1.637 -1.25,2.006 z" />
		<rect
   style="fill:none"
   y="0"
   x="0"
   id="rect17"
   height="30"
   width="30" />
	</g>
</svg>