<?xml version="1.0" encoding="UTF-8" standalone="no"?>
<!-- Generator: Adobe Illustrator 15.0.0, SVG Export Plug-In . SVG Version: 6.00 Build 0)  -->

<svg
   xmlns:dc="http://purl.org/dc/elements/1.1/"
   xmlns:cc="http://creativecommons.org/ns#"
   xmlns:rdf="http://www.w3.org/1999/02/22-rdf-syntax-ns#"
   xmlns:svg="http://www.w3.org/2000/svg"
   xmlns="http://www.w3.org/2000/svg"
   xmlns:sodipodi="http://sodipodi.sourceforge.net/DTD/sodipodi-0.dtd"
   xmlns:inkscape="http://www.inkscape.org/namespaces/inkscape"
   version="1.1"
   x="0px"
   y="0px"
   width="30px"
   height="30px"
   viewBox="0 0 30 30"
   enable-background="new 0 0 30 30"
   xml:space="preserve"
   id="svg2"
   inkscape:version="0.48.4 r9939"
   sodipodi:docname="volume_increase.svg"><metadata
   id="metadata19"><rdf:RDF><cc:Work
       rdf:about=""><dc:format>image/svg+xml</dc:format><dc:type
         rdf:resource="http://purl.org/dc/dcmitype/StillImage" /><dc:title></dc:title></cc:Work></rdf:RDF></metadata><defs
   id="defs17">
	
	
	
	
</defs><sodipodi:namedview
   pagecolor="#ffffff"
   bordercolor="#666666"
   borderopacity="1"
   objecttolerance="10"
   gridtolerance="10"
   guidetolerance="10"
   inkscape:pageopacity="0"
   inkscape:pageshadow="2"
   inkscape:window-width="1920"
   inkscape:window-height="999"
   id="namedview15"
   showgrid="false"
   inkscape:zoom="22.250293"
   inkscape:cx="26.540332"
   inkscape:cy="11.244941"
   inkscape:window-x="-9"
   inkscape:window-y="-9"
   inkscape:window-maximized="1"
   inkscape:current-layer="svg2"
   showguides="true"
   inkscape:guide-bbox="true" />
<g
   id="DO_NOT_EDIT_-_BOUNDING_BOX">
	<rect
   id="BOUNDING_BOX"
   fill="none"
   width="30"
   height="30" />
</g>
<path
   style="fill:#ffffff"
   inkscape:connector-curvature="0"
   id="path13"
   d="M 13.496,5.316 8.714,9.5 H 4 c -1.1,0 -2,0.9 -2,2 v 7 c 0,1.1 0.9,2 2,2 h 4.714 l 4.782,4.184 C 14.322,25.408 15,25.1 15,24 V 6 C 15,4.9 14.322,4.594 13.496,5.316 z m 6.875,1.565 C 20.035,6.277 19.271,6.063 18.67,6.401 18.066,6.737 17.852,7.499 18.19,8.1 c 1.178,2.107 1.799,4.494 1.799,6.9 0,2.408 -0.621,4.795 -1.799,6.9 -0.338,0.602 -0.123,1.363 0.48,1.701 0.193,0.107 0.402,0.158 0.609,0.158 0.438,0 0.863,-0.23 1.092,-0.639 1.385,-2.479 2.117,-5.287 2.117,-8.121 0,-2.834 -0.732,-5.64 -2.117,-8.118 z M 24.314,2.813 C 23.933,2.237 23.158,2.079 22.582,2.458 c -0.576,0.379 -0.736,1.154 -0.355,1.73 2.123,3.222 3.244,6.96 3.244,10.812 0,3.852 -1.121,7.592 -3.244,10.813 -0.381,0.576 -0.221,1.352 0.355,1.732 0.213,0.139 0.451,0.205 0.688,0.205 0.406,0 0.805,-0.197 1.045,-0.563 2.393,-3.631 3.656,-7.844 3.656,-12.188 0,-4.341 -1.264,-8.556 -3.657,-12.186 z" />
<rect
   style="fill:#00aaff;fill-opacity:1;fill-rule:nonzero"
   id="rect3779"
   width="9"
   height="2.4558616"
   x="3.9000001"
   y="13.544138"
   ry="0.57203388" /></svg>