<?xml version="1.0" encoding="UTF-8" standalone="no"?>
<!-- Generator: Adobe Illustrator 15.0.0, SVG Export Plug-In . SVG Version: 6.00 Build 0)  -->

<svg
   xmlns:dc="http://purl.org/dc/elements/1.1/"
   xmlns:cc="http://creativecommons.org/ns#"
   xmlns:rdf="http://www.w3.org/1999/02/22-rdf-syntax-ns#"
   xmlns:svg="http://www.w3.org/2000/svg"
   xmlns="http://www.w3.org/2000/svg"
   xmlns:sodipodi="http://sodipodi.sourceforge.net/DTD/sodipodi-0.dtd"
   xmlns:inkscape="http://www.inkscape.org/namespaces/inkscape"
   version="1.1"
   x="0px"
   y="0px"
   width="30px"
   height="30px"
   viewBox="0 0 30 30"
   enable-background="new 0 0 30 30"
   xml:space="preserve"
   id="svg2"
   inkscape:version="0.48.4 r9939"
   sodipodi:docname="web_page.svg"><metadata
   id="metadata23"><rdf:RDF><cc:Work
       rdf:about=""><dc:format>image/svg+xml</dc:format><dc:type
         rdf:resource="http://purl.org/dc/dcmitype/StillImage" /><dc:title></dc:title></cc:Work></rdf:RDF></metadata><defs
   id="defs21">
	

		
		
		
		
		
	</defs><sodipodi:namedview
   pagecolor="#ffffff"
   bordercolor="#666666"
   borderopacity="1"
   objecttolerance="10"
   gridtolerance="10"
   guidetolerance="10"
   inkscape:pageopacity="0"
   inkscape:pageshadow="2"
   inkscape:window-width="1920"
   inkscape:window-height="999"
   id="namedview19"
   showgrid="false"
   inkscape:zoom="22.250293"
   inkscape:cx="7.0904459"
   inkscape:cy="15.536673"
   inkscape:window-x="-9"
   inkscape:window-y="-9"
   inkscape:window-maximized="1"
   inkscape:current-layer="svg2" />
<g
   id="DO_NOT_EDIT_-_BOUNDING_BOX">
	<rect
   id="BOUNDING_BOX"
   fill="none"
   width="30"
   height="30" />
</g>
<rect
   width="30"
   height="30"
   id="rect11"
   x="0"
   y="0"
   style="fill:none" /><path
   d="M 25,2 H 5 C 4.447,2 4,2.447 4,3 v 24 c 0,0.553 0.447,1 1,1 h 20 c 0.553,0 1,-0.447 1,-1 V 3 C 26,2.447 25.553,2 25,2 z M 7,5 h 6 v 7 H 7 V 5 z M 22,24 H 8 C 7.447,24 7,23.553 7,23 7,22.447 7.447,22 8,22 h 14 c 0.553,0 1,0.447 1,1 0,0.553 -0.447,1 -1,1 z m 0,-4 H 8 C 7.447,20 7,19.553 7,19 7,18.447 7.447,18 8,18 h 14 c 0.553,0 1,0.447 1,1 0,0.553 -0.447,1 -1,1 z m 0,-4 H 8 C 7.447,16 7,15.553 7,15 7,14.447 7.447,14 8,14 h 14 c 0.553,0 1,0.447 1,1 0,0.553 -0.447,1 -1,1 z m 0,-4 h -6 c -0.553,0 -1,-0.447 -1,-1 0,-0.553 0.447,-1 1,-1 h 6 c 0.553,0 1,0.447 1,1 0,0.553 -0.447,1 -1,1 z M 22,8 H 16 C 15.447,8 15,7.553 15,7 15,6.447 15.447,6 16,6 h 6 c 0.553,0 1,0.447 1,1 0,0.553 -0.447,1 -1,1 z"
   id="path17"
   inkscape:connector-curvature="0"
   style="fill:#ffffff" />
</svg>