<?xml version="1.0" encoding="UTF-8" standalone="no"?>
<svg id="svg2" xmlns:rdf="http://www.w3.org/1999/02/22-rdf-syntax-ns#" xmlns="http://www.w3.org/2000/svg" height="30px" width="30px" version="1.1" y="0px" x="0px" xmlns:cc="http://creativecommons.org/ns#" xmlns:dc="http://purl.org/dc/elements/1.1/" viewBox="0.001 0 30 30">
 <metadata id="metadata21">
  <rdf:RDF>
   <cc:Work rdf:about="">
    <dc:format>image/svg+xml</dc:format>
    <dc:type rdf:resource="http://purl.org/dc/dcmitype/StillImage"/>
    <dc:title/>
   </cc:Work>
  </rdf:RDF>
 </metadata>
 <path id="path4" fill="#F00" d="M15,0c-11.112,0-15,3.891-15,15,0,11.115,3.888,15,15,15,11.115,0,15-3.885,15-15,0-11.109-3.885-15-15-15z"/>
 <path id="path8" fill="#FFF" d="m23.262,19.925-4.927-4.923,4.928-4.931c0.955-0.952,0.988-2.486,0.07-3.406-0.914-0.915-2.449-0.881-3.404,0.073l-4.928,4.929-4.928-4.929c-0.955-0.954-2.487-0.988-3.404-0.07-0.918,0.917-0.885,2.448,0.07,3.406l4.928,4.928-4.924,4.923c-0.959,0.957-0.989,2.492-0.074,3.408,0.917,0.916,2.45,0.885,3.408-0.074l4.923-4.924,4.927,4.926c0.956,0.957,2.488,0.988,3.407,0.072,0.917-0.916,0.884-2.451-0.072-3.408z"/>
 <defs id="defs10"></defs>
</svg>
