<?xml version="1.0" encoding="UTF-8" standalone="no"?>
<!-- Generator: Adobe Illustrator 15.0.0, SVG Export Plug-In . SVG Version: 6.00 Build 0)  -->

<svg
   xmlns:dc="http://purl.org/dc/elements/1.1/"
   xmlns:cc="http://creativecommons.org/ns#"
   xmlns:rdf="http://www.w3.org/1999/02/22-rdf-syntax-ns#"
   xmlns:svg="http://www.w3.org/2000/svg"
   xmlns="http://www.w3.org/2000/svg"
   xmlns:sodipodi="http://sodipodi.sourceforge.net/DTD/sodipodi-0.dtd"
   xmlns:inkscape="http://www.inkscape.org/namespaces/inkscape"
   version="1.1"
   x="0px"
   y="0px"
   width="30px"
   height="30px"
   viewBox="0 0 30 30"
   enable-background="new 0 0 30 30"
   xml:space="preserve"
   id="svg2"
   inkscape:version="0.48.4 r9939"
   sodipodi:docname="zoom_in.svg"><metadata
   id="metadata23"><rdf:RDF><cc:Work
       rdf:about=""><dc:format>image/svg+xml</dc:format><dc:type
         rdf:resource="http://purl.org/dc/dcmitype/StillImage" /></cc:Work></rdf:RDF></metadata><defs
   id="defs21">
	

		
		
		
		
		
	</defs><sodipodi:namedview
   pagecolor="#ffffff"
   bordercolor="#666666"
   borderopacity="1"
   objecttolerance="10"
   gridtolerance="10"
   guidetolerance="10"
   inkscape:pageopacity="0"
   inkscape:pageshadow="2"
   inkscape:window-width="1920"
   inkscape:window-height="999"
   id="namedview19"
   showgrid="false"
   inkscape:zoom="22.250293"
   inkscape:cx="30.539032"
   inkscape:cy="18.164841"
   inkscape:window-x="-9"
   inkscape:window-y="-9"
   inkscape:window-maximized="1"
   inkscape:current-layer="svg2" />
<g
   id="DO_NOT_EDIT_-_BOUNDING_BOX">
	<rect
   id="BOUNDING_BOX"
   fill="none"
   width="30"
   height="30" />
</g>
<rect
   width="30"
   height="30"
   id="rect11"
   x="0"
   y="0"
   style="fill:none" /><path
   d="M 27.268,23.732 22.334,18.8 C 23.385,17.115 24,15.133 24,13 24,6.926 19.074,2 13,2 6.924,2 2,6.926 2,13 c 0,6.076 4.924,11 11,11 2.131,0 4.113,-0.615 5.799,-1.664 l 4.934,4.932 c 0.977,0.979 2.561,0.979 3.535,0 0.976,-0.975 0.976,-2.559 0,-3.536 z M 13,20.5 C 8.863,20.5 5.5,17.137 5.5,13 5.5,8.865 8.863,5.5 13,5.5 c 4.135,0 7.5,3.365 7.5,7.5 0,4.137 -3.365,7.5 -7.5,7.5 z M 14,12 V 8 C 14,7.447 13.553,7 13,7 12.447,7 12,7.447 12,8 v 4 H 8 c -0.553,0 -1,0.447 -1,1 0,0.553 0.447,1 1,1 h 4 v 4 c 0,0.553 0.447,1 1,1 0.553,0 1,-0.447 1,-1 v -4 h 4 c 0.553,0 1,-0.447 1,-1 0,-0.553 -0.447,-1 -1,-1 h -4 z"
   id="path17"
   inkscape:connector-curvature="0"
   style="fill:#ffffff" />
</svg>