<?xml version="1.0" encoding="UTF-8" standalone="no"?>
<!-- Generator: Adobe Illustrator 16.0.3, SVG Export Plug-In . SVG Version: 6.00 Build 0)  -->

<svg
   xmlns:dc="http://purl.org/dc/elements/1.1/"
   xmlns:cc="http://creativecommons.org/ns#"
   xmlns:rdf="http://www.w3.org/1999/02/22-rdf-syntax-ns#"
   xmlns:svg="http://www.w3.org/2000/svg"
   xmlns="http://www.w3.org/2000/svg"
   xmlns:sodipodi="http://sodipodi.sourceforge.net/DTD/sodipodi-0.dtd"
   xmlns:inkscape="http://www.inkscape.org/namespaces/inkscape"
   id="svg2"
   enable-background="new 0 0 60 60"
   xml:space="preserve"
   height="60px"
   viewBox="0 0 60 60"
   width="60px"
   version="1.1"
   y="0px"
   x="0px"
   inkscape:version="0.48.4 r9939"
   sodipodi:docname="blue.svg"><defs
   id="defs21" /><sodipodi:namedview
   pagecolor="#ffffff"
   bordercolor="#666666"
   borderopacity="1"
   objecttolerance="10"
   gridtolerance="10"
   guidetolerance="10"
   inkscape:pageopacity="0"
   inkscape:pageshadow="2"
   inkscape:window-width="1920"
   inkscape:window-height="999"
   id="namedview19"
   showgrid="false"
   inkscape:zoom="11.125147"
   inkscape:cx="54.182676"
   inkscape:cy="34.548903"
   inkscape:window-x="-9"
   inkscape:window-y="-9"
   inkscape:window-maximized="1"
   inkscape:current-layer="svg2" /><metadata
   id="metadata28"><rdf:RDF><cc:Work
       rdf:about=""><dc:format>image/svg+xml</dc:format><dc:type
         rdf:resource="http://purl.org/dc/dcmitype/StillImage" /><dc:title></dc:title></cc:Work></rdf:RDF></metadata>
<linearGradient
   id="path11_1_"
   y2="-95.201"
   gradientUnits="userSpaceOnUse"
   x2="7.6001"
   gradientTransform="matrix(1 0 0 -1 22.3999 -39.96)"
   y1="-44.96"
   x1="7.6001">
	<stop
   id="stop5"
   stop-color="#000000"
   offset="0" />
	<stop
   id="stop7"
   stop-color="#000000"
   offset="0.0057" />
	<stop
   id="stop9"
   stop-color="#000000"
   stop-opacity="0"
   offset="1" />
</linearGradient>

<path
   id="path13"
   d="M30,53.999c-17.944,0-24-6.056-24-23.999,0-17.944,6.056-24,24-24,17.943,0,24,6.056,24,24,0,17.943-6.057,23.999-24,23.999z"
   fill="#00aaff" />
<linearGradient
   id="path15_1_"
   y2="-45.878"
   gradientUnits="userSpaceOnUse"
   x2="7.6001"
   gradientTransform="matrix(1,0,0,-1,22.145545,-40.214226)"
   y1="-93.757"
   x1="7.6001">
	<stop
   id="stop14"
   stop-color="#FFFFFF"
   offset="0" />
	<stop
   id="stop16"
   stop-color="#FFFFFF"
   stop-opacity="0"
   offset="1" />
</linearGradient>
<path
   id="path15"
   d="m29.746,53.744c-17.944,0-24-6.057-24-23.999,0-17.944,6.056-24,24-24,17.943,0,24,6.056,24,24,0,17.943-6.057,23.999-24,23.999z"
   fill-opacity="0.15"
   fill="url(#path15_1_)" />
<linearGradient
   id="path17_1_"
   y2="-45.878"
   gradientUnits="userSpaceOnUse"
   x2="7.6001"
   gradientTransform="matrix(1 0 0 -1 22.3999 -39.96)"
   y1="-93.757"
   x1="7.6001">
	<stop
   id="stop20"
   stop-color="#FFFFFF"
   offset="0" />
	<stop
   id="stop22"
   stop-color="#FFFFFF"
   stop-opacity="0"
   offset="1" />
</linearGradient>
<path
   id="path17"
   d="M30,6c-17.944,0-24,6.056-24,24,0,17.943,6.056,23.999,24,23.999,17.943,0,24-6.056,24-23.999,0-17.944-6.057-24-24-24zm0,46.801c-17.261,0-22.8-5.54-22.8-22.801s5.539-22.8,22.8-22.8c17.262,0,22.8,5.539,22.8,22.8s-5.538,22.801-22.8,22.801z"
   fill-opacity="0.1"
   fill="url(#path17_1_)" />
<rect
   id="rect19"
   width="60"
   height="60"
   fill="none" />
</svg>