<?xml version="1.0" encoding="UTF-8" standalone="no"?>
<!-- Generator: Adobe Illustrator 16.0.3, SVG Export Plug-In . SVG Version: 6.00 Build 0)  -->

<svg
   xmlns:dc="http://purl.org/dc/elements/1.1/"
   xmlns:cc="http://creativecommons.org/ns#"
   xmlns:rdf="http://www.w3.org/1999/02/22-rdf-syntax-ns#"
   xmlns:svg="http://www.w3.org/2000/svg"
   xmlns="http://www.w3.org/2000/svg"
   xmlns:sodipodi="http://sodipodi.sourceforge.net/DTD/sodipodi-0.dtd"
   xmlns:inkscape="http://www.inkscape.org/namespaces/inkscape"
   version="1.1"
   id="svg2"
   sodipodi:docname="red.svg"
   inkscape:version="0.48.4 r9939"
   x="0px"
   y="0px"
   width="60px"
   height="60px"
   viewBox="0 0 60 60"
   enable-background="new 0 0 60 60"
   xml:space="preserve"><metadata
   id="metadata28"><rdf:RDF><cc:Work
       rdf:about=""><dc:format>image/svg+xml</dc:format><dc:type
         rdf:resource="http://purl.org/dc/dcmitype/StillImage" /></cc:Work></rdf:RDF></metadata><defs
   id="defs26" />
<sodipodi:namedview
   inkscape:cy="42.702986"
   inkscape:cx="36.105404"
   inkscape:zoom="15.733333"
   showgrid="false"
   guidetolerance="10"
   gridtolerance="10"
   objecttolerance="10"
   bordercolor="#666666"
   pagecolor="#ffffff"
   borderopacity="1"
   id="namedview28"
   inkscape:current-layer="svg2"
   inkscape:window-maximized="1"
   inkscape:window-y="-9"
   inkscape:window-x="-9"
   inkscape:window-height="999"
   inkscape:window-width="1920"
   inkscape:pageshadow="2"
   inkscape:pageopacity="0">
	</sodipodi:namedview>
<linearGradient
   id="path11_1_"
   gradientUnits="userSpaceOnUse"
   x1="7.6001"
   y1="-44.96"
   x2="7.6001"
   y2="-95.2013"
   gradientTransform="matrix(1 0 0 -1 22.3999 -39.96)">
	<stop
   offset="0"
   style="stop-color:#000000"
   id="stop5" />
	<stop
   offset="0.0057"
   style="stop-color:#000000"
   id="stop7" />
	<stop
   offset="1"
   style="stop-color:#000000;stop-opacity:0"
   id="stop9" />
</linearGradient>

<path
   id="path13"
   fill="#FF2A2A"
   d="M30,53.999C12.056,53.999,6,47.943,6,30C6,12.056,12.056,6,30,6c17.943,0,24,6.056,24,24  C54,47.943,47.943,53.999,30,53.999z" />
<linearGradient
   id="path15_1_"
   gradientUnits="userSpaceOnUse"
   x1="7.6001"
   y1="-93.7573"
   x2="7.6001"
   y2="-45.8782"
   gradientTransform="matrix(1 0 0 -1 22.5269 -40.7227)">
	<stop
   offset="0"
   style="stop-color:#FFFFFF"
   id="stop14" />
	<stop
   offset="1"
   style="stop-color:#FFFFFF;stop-opacity:0"
   id="stop16" />
</linearGradient>
<path
   id="path15"
   inkscape:connector-curvature="0"
   fill="url(#path15_1_)"
   fill-opacity="0.15"
   d="M30.127,53.236  c-17.944,0-24-6.057-24-23.999c0-17.944,6.056-24,24-24c17.943,0,24,6.056,24,24C54.127,47.18,48.07,53.236,30.127,53.236z" />
<linearGradient
   id="path17_1_"
   gradientUnits="userSpaceOnUse"
   x1="7.6001"
   y1="-93.7573"
   x2="7.6001"
   y2="-45.8782"
   gradientTransform="matrix(1 0 0 -1 22.3999 -39.96)">
	<stop
   offset="0"
   style="stop-color:#FFFFFF"
   id="stop20" />
	<stop
   offset="1"
   style="stop-color:#FFFFFF;stop-opacity:0"
   id="stop22" />
</linearGradient>
<path
   id="path17"
   fill="url(#path17_1_)"
   fill-opacity="0.1"
   d="M30,6C12.056,6,6,12.056,6,30c0,17.943,6.056,23.999,24,23.999  c17.943,0,24-6.056,24-23.999C54,12.056,47.943,6,30,6z M30,52.801c-17.261,0-22.8-5.54-22.8-22.801S12.739,7.2,30,7.2  c17.262,0,22.8,5.539,22.8,22.8S47.262,52.801,30,52.801z" />
<rect
   id="rect19"
   fill="none"
   width="60"
   height="60" />
</svg>