<?xml version="1.0" encoding="UTF-8" standalone="no"?>
<svg id="svg2" xmlns:rdf="http://www.w3.org/1999/02/22-rdf-syntax-ns#" xmlns="http://www.w3.org/2000/svg" height="42px" viewBox="0 0 84 42" width="84px" version="1.1" y="0px" x="0px" xmlns:cc="http://creativecommons.org/ns#" xmlns:dc="http://purl.org/dc/elements/1.1/">
 <metadata id="metadata24">
  <rdf:RDF>
   <cc:Work rdf:about="">
    <dc:format>image/svg+xml</dc:format>
    <dc:type rdf:resource="http://purl.org/dc/dcmitype/StillImage"/>
    <dc:title/>
   </cc:Work>
  </rdf:RDF>
 </metadata>
 <path id="path11" d="M0,20c0-14.953,5.047-20,20-20h44c14.953,0,20,5.047,20,20v2c0,14.953-5.047,20-20,20h-44c-14.953,0-20-5.047-20-20v-2z" stroke-opacity="0.15" fill-opacity="0.15" fill="url(#SVGID_1_)"/>
 <path id="path4" opacity="0.2" fill="#005cff" d="m0,22c0,14.953,5.047,20,20,20h44c14.953,0,20-5.047,20-20v-2c0-14.953-5.047-20-20-20h-44c-14.953,0-20,5.047-20,20v2z"/>
 <linearGradient id="SVGID_1_" y2="0.1385" gradientUnits="userSpaceOnUse" x2="42" gradientTransform="matrix(-1,0,0,1,84,0)" y1="41.918" x1="42">
  <stop id="stop7" stop-color="#FFF" offset="0"/>
  <stop id="stop9" stop-color="#FFF" stop-opacity="0" offset="1"/>
 </linearGradient>
</svg>
