<?xml version="1.0" encoding="UTF-8" standalone="no"?>
<svg
   xmlns:dc="http://purl.org/dc/elements/1.1/"
   xmlns:cc="http://creativecommons.org/ns#"
   xmlns:rdf="http://www.w3.org/1999/02/22-rdf-syntax-ns#"
   xmlns:svg="http://www.w3.org/2000/svg"
   xmlns="http://www.w3.org/2000/svg"
   xmlns:sodipodi="http://sodipodi.sourceforge.net/DTD/sodipodi-0.dtd"
   xmlns:inkscape="http://www.inkscape.org/namespaces/inkscape"
   id="svg2"
   height="42px"
   viewBox="0 0 84 42"
   width="84px"
   version="1.1"
   y="0px"
   x="0px"
   inkscape:version="0.48.4 r9939"
   sodipodi:docname="red.svg">
  <defs
     id="defs15" />
  <sodipodi:namedview
     pagecolor="#ffffff"
     bordercolor="#666666"
     borderopacity="1"
     objecttolerance="10"
     gridtolerance="10"
     guidetolerance="10"
     inkscape:pageopacity="0"
     inkscape:pageshadow="2"
     inkscape:window-width="1920"
     inkscape:window-height="999"
     id="namedview13"
     showgrid="false"
     inkscape:zoom="16.142857"
     inkscape:cx="37.439817"
     inkscape:cy="17.730947"
     inkscape:window-x="-9"
     inkscape:window-y="-9"
     inkscape:window-maximized="1"
     inkscape:current-layer="svg2" />
  <metadata
     id="metadata24">
    <rdf:RDF>
      <cc:Work
         rdf:about="">
        <dc:format>image/svg+xml</dc:format>
        <dc:type
           rdf:resource="http://purl.org/dc/dcmitype/StillImage" />
        <dc:title />
      </cc:Work>
    </rdf:RDF>
  </metadata>
  <path
     id="path4"
     d="m 0,22 c 0,14.953 5.047,20 20,20 l 44,0 c 14.953,0 20,-5.047 20,-20 l 0,-2 C 84,5.047 78.953,0 64,0 L 20,0 C 5.047,0 0,5.047 0,20 l 0,2 z"
     inkscape:connector-curvature="0"
     style="fill:#ff2a2a" />
  <linearGradient
     id="SVGID_1_"
     y2="0.1385"
     gradientUnits="userSpaceOnUse"
     x2="42"
     y1="41.918"
     x1="42"
     gradientTransform="matrix(-1,0,0,-1,84,42)">
    <stop
       id="stop7"
       stop-color="#FFFFFF"
       offset="0" />
    <stop
       id="stop9"
       stop-color="#FFFFFF"
       stop-opacity="0"
       offset="1" />
  </linearGradient>
  <path
     id="path11"
     d="m 0,22 c 0,14.953 5.047,20 20,20 l 44,0 c 14.953,0 20,-5.047 20,-20 l 0,-2 C 84,5.047 78.953,0 64,0 L 20,0 C 5.047,0 0,5.047 0,20 l 0,2 z"
     style="fill:url(#SVGID_1_);fill-opacity:0.15;stroke-opacity:0.15"
     inkscape:connector-curvature="0" />
  <linearGradient
     id="SVGID_2_"
     y2="0.1253"
     gradientUnits="userSpaceOnUse"
     x2="42"
     y1="42"
     x1="42">
    <stop
       id="stop14"
       stop-color="#FFFFFF"
       offset="0" />
    <stop
       id="stop16"
       stop-color="#000000"
       offset="1" />
  </linearGradient>
</svg>
