<?xml version="1.0" encoding="UTF-8" standalone="no"?>
<svg id="svg2" xmlns:rdf="http://www.w3.org/1999/02/22-rdf-syntax-ns#" xmlns="http://www.w3.org/2000/svg" height="44px" width="66px" version="1.1" y="0px" x="0px" xmlns:cc="http://creativecommons.org/ns#" xmlns:dc="http://purl.org/dc/elements/1.1/" viewBox="0 0 66 44">
 <metadata id="metadata49">
  <rdf:RDF>
   <cc:Work rdf:about="">
    <dc:format>image/svg+xml</dc:format>
    <dc:type rdf:resource="http://purl.org/dc/dcmitype/StillImage"/>
    <dc:title/>
   </cc:Work>
  </rdf:RDF>
 </metadata>
 <path id="path4" fill="#00F" d="M45,2c14.814,0,20,5.184,20,20,0,14.818-5.186,20-20,20h-24c-14.814,0-20-5.182-20-20,0-14.816,5.186-20,20-20h24"/>
 <linearGradient id="SVGID_1_" y2="1.0005" gradientUnits="userSpaceOnUse" y1="43" x2="33" x1="33">
  <stop id="stop7" stop-color="#FFF" offset="0"/>
  <stop id="stop9" stop-color="#FFF" stop-opacity="0" offset="1"/>
 </linearGradient>
 <path id="path11" fill-opacity="0.3" d="M45,2c14.814,0,20,5.184,20,20,0,14.818-5.186,20-20,20h-24c-14.814,0-20-5.182-20-20,0-14.816,5.186-20,20-20h24m0-1h-24c-15.309,0-21,5.691-21,21,0,15.31,5.691,21,21,21h24c15.309,0,21-5.69,21-21,0-15.309-5.691-21-21-21z" stroke-opacity="0.3" fill="url(#SVGID_1_)"/>
 <path id="path20" d="M45,42c14.814,0,20-5.184,20-20,0-14.818-5.186-20-20-20h-24c-14.814,0-20,5.182-20,20,0,14.816,5.186,20,20,20h24" stroke-opacity="0.3" fill-opacity="0.3" fill="#00F"/>
 <linearGradient id="SVGID_3_" y2="42.335" gradientUnits="userSpaceOnUse" y1="2" x2="33" x1="33">
  <stop id="stop23" stop-color="#000" offset="0"/>
  <stop id="stop25" stop-color="#000" stop-opacity="0" offset="1"/>
 </linearGradient>
 <path id="path27" fill-opacity="0.03" d="M45,2h-24c-14.814,0-20,5.184-20,20,0,14.818,5.186,20,20,20h24c14.814,0,20-5.182,20-20,0-14.816-5.186-20-20-20zm0,37h-24c-13.028,0-17-3.973-17-17s3.972-17,17-17h24c13.028,0,17,3.973,17,17s-3.972,17-17,17z" stroke-opacity="0.03" fill="url(#SVGID_3_)"/>
 <linearGradient id="SVGID_4_" y2="41.718" gradientUnits="userSpaceOnUse" y1="2.3335" x2="33" x1="33">
  <stop id="stop30" stop-color="#000" offset="0"/>
  <stop id="stop32" stop-color="#000" stop-opacity="0" offset="1"/>
 </linearGradient>
 <path id="path34" fill-opacity="0.05" d="M45,2h-24c-14.814,0-20,5.184-20,20,0,14.818,5.186,20,20,20h24c14.814,0,20-5.182,20-20,0-14.816-5.186-20-20-20zm0,38h-24c-13.626,0-18-4.374-18-18s4.374-18,18-18h24c13.626,0,18,4.374,18,18s-4.374,18-18,18z" stroke-opacity="0.05" fill="url(#SVGID_4_)"/>
 <linearGradient id="SVGID_5_" y2="42" gradientUnits="userSpaceOnUse" y1="2" x2="33" x1="33">
  <stop id="stop37" stop-color="#000" offset="0"/>
  <stop id="stop39" stop-color="#000" stop-opacity="0" offset="1"/>
 </linearGradient>
 <path id="path41" fill-opacity="0.1" d="M45,2h-24c-14.814,0-20,5.184-20,20,0,14.818,5.186,20,20,20h24c14.814,0,20-5.182,20-20,0-14.816-5.186-20-20-20zm0,39h-24c-14.206,0-19-4.795-19-19s4.794-19,19-19h24c14.206,0,19,4.795,19,19s-4.794,19-19,19z" stroke-opacity="0.1" fill="url(#SVGID_5_)"/>
 <rect id="rect43" width="66" height="44" fill="none"/>
</svg>
