<?xml version="1.0" encoding="UTF-8" standalone="no"?>
<svg
   xmlns:dc="http://purl.org/dc/elements/1.1/"
   xmlns:cc="http://creativecommons.org/ns#"
   xmlns:rdf="http://www.w3.org/1999/02/22-rdf-syntax-ns#"
   xmlns:svg="http://www.w3.org/2000/svg"
   xmlns="http://www.w3.org/2000/svg"
   xmlns:sodipodi="http://sodipodi.sourceforge.net/DTD/sodipodi-0.dtd"
   xmlns:inkscape="http://www.inkscape.org/namespaces/inkscape"
   height="44px"
   version="1.1"
   viewBox="0 0 44 44"
   width="44px"
   x="0px"
   y="0px"
   id="svg2"
   inkscape:version="0.48.4 r9939"
   sodipodi:docname="qtg_graf_switchbutton_handle_normal.svg">
  <metadata
     id="metadata27">
    <rdf:RDF>
      <cc:Work
         rdf:about="">
        <dc:format>image/svg+xml</dc:format>
        <dc:type
           rdf:resource="http://purl.org/dc/dcmitype/StillImage" />
        <dc:title></dc:title>
      </cc:Work>
    </rdf:RDF>
  </metadata>
  <sodipodi:namedview
     pagecolor="#ffffff"
     bordercolor="#666666"
     borderopacity="1"
     objecttolerance="10"
     gridtolerance="10"
     guidetolerance="10"
     inkscape:pageopacity="0"
     inkscape:pageshadow="2"
     inkscape:window-width="1920"
     inkscape:window-height="999"
     id="namedview25"
     showgrid="false"
     inkscape:zoom="21.454545"
     inkscape:cx="30.182879"
     inkscape:cy="20.882578"
     inkscape:window-x="-9"
     inkscape:window-y="-9"
     inkscape:window-maximized="1"
     inkscape:current-layer="svg2" />
  <path
     d="M22,40C9.765,40,5,35.234,5,23S9.765,6,22,6c12.233,0,17,4.766,17,17S34.233,40,22,40z"
     fill-opacity="0.05"
     stroke-opacity="0.05"
     id="path4" />
  <path
     d="M22,39C10.336,39,6,34.664,6,23S10.336,7,22,7c11.662,0,15.999,4.336,15.999,16S33.662,39,22,39z"
     fill-opacity="0.1"
     stroke-opacity="0.1"
     id="path6" />
  <path
     d="M37,23c0,11.113-3.889,15-15,15C10.885,38,7,34.113,7,23S10.885,8,22,8C33.111,8,37,11.887,37,23z"
     fill-opacity="0.5"
     stroke-opacity="0.5"
     id="path8"
     style="fill:#ff7f2a;opacity:1" />
  <path
     d="M37,22c0,11.114-3.889,14.999-15,14.999C10.885,36.999,7,33.114,7,22C7,10.887,10.885,7,22,7  C33.111,7,37,10.887,37,22z"
     fill="#FFFFFF"
     id="path10" />
  <path
     d="M37,22.5c0,10.744-3.889,14.499-15,14.499c-11.115,0-15-3.755-15-14.499  C7,11.758,10.885,8,22,8C33.111,8,37,11.758,37,22.5z"
     fill="url(#SVGID_1_)"
     fill-opacity="0.2"
     stroke-opacity="0.2"
     id="path12" />
  <rect
     fill="none"
     height="44"
     width="44"
     id="rect14" />
  <defs
     id="defs16">
    <linearGradient
       gradientUnits="userSpaceOnUse"
       id="SVGID_1_"
       x1="22.0005"
       x2="22.0005"
       y1="44.832"
       y2="8.2368">
      <stop
         offset="0"
         style="stop-color:#000000;stop-opacity:0.30645162;"
         id="stop19" />
      <stop
         offset="0.2245"
         style="stop-color:#000000"
         id="stop21" />
      <stop
         offset="1"
         style="stop-color:#000000;stop-opacity:1;"
         id="stop23" />
    </linearGradient>
  </defs>
</svg>
