<?xml version="1.0" encoding="UTF-8" standalone="no"?>
<svg
   xmlns:dc="http://purl.org/dc/elements/1.1/"
   xmlns:cc="http://creativecommons.org/ns#"
   xmlns:rdf="http://www.w3.org/1999/02/22-rdf-syntax-ns#"
   xmlns:svg="http://www.w3.org/2000/svg"
   xmlns="http://www.w3.org/2000/svg"
   xmlns:sodipodi="http://sodipodi.sourceforge.net/DTD/sodipodi-0.dtd"
   xmlns:inkscape="http://www.inkscape.org/namespaces/inkscape"
   id="svg2"
   height="155"
   width="160"
   version="1.1"
   y="0px"
   x="0px"
   viewBox="0 0 160 155"
   inkscape:version="0.48.4 r9939"
   sodipodi:docname="swipearrow.svg">
  <defs
     id="defs11" />
  <sodipodi:namedview
     pagecolor="#ffffff"
     bordercolor="#666666"
     borderopacity="1"
     objecttolerance="10"
     gridtolerance="10"
     guidetolerance="10"
     inkscape:pageopacity="0"
     inkscape:pageshadow="2"
     inkscape:window-width="1920"
     inkscape:window-height="999"
     id="namedview9"
     showgrid="false"
     inkscape:zoom="3.0451613"
     inkscape:cx="153.85104"
     inkscape:cy="77.46914"
     inkscape:window-x="-9"
     inkscape:window-y="-9"
     inkscape:window-maximized="1"
     inkscape:current-layer="svg2" />
  <metadata
     id="metadata20">
    <rdf:RDF>
      <cc:Work
         rdf:about="">
        <dc:format>image/svg+xml</dc:format>
        <dc:type
           rdf:resource="http://purl.org/dc/dcmitype/StillImage" />
        <dc:title></dc:title>
      </cc:Work>
    </rdf:RDF>
  </metadata>
  <rect
     id="rect4"
     height="30"
     width="30"
     y="125"
     x="0"
     fill="none" />
  <path
     id="path12"
     d="m 67.975,84.63 c -5.2558,-3.0996 -5.2558,-8.1727 0,-11.278 L 152.8,23.244 c 5.2467,-3.105 5.2467,-8.1781 0,-11.283 l -9.5584,-5.6469 c -5.2648,-3.105 -13.852,-3.105 -19.099,0 l -113.46,67.033 c -5.2558,3.0996 -5.2558,8.1728 0,11.278 l 113.47,67.035 c 5.2467,3.0943 13.834,3.0943 19.099,0 l 9.5584,-5.6362 c 5.2467,-3.0996 5.2467,-8.1888 0,-11.294 l -84.835,-50.1 z"
     inkscape:connector-curvature="0"
     style="fill:#ffffff" />
  <rect
     id="rect14"
     height="30"
     width="30"
     y="125"
     x="0"
     fill="none" />
</svg>
